<?xml version="1.0" encoding="utf-8"?>
<!-- Generator: Adobe Illustrator 16.0.0, SVG Export Plug-In . SVG Version: 6.00 Build 0)  -->
<!DOCTYPE svg PUBLIC "-//W3C//DTD SVG 1.1//EN" "http://www.w3.org/Graphics/SVG/1.1/DTD/svg11.dtd">
<svg version="1.1" id="Layer_1" xmlns="http://www.w3.org/2000/svg" xmlns:xlink="http://www.w3.org/1999/xlink" x="0px" y="0px"
	 width="249.971px" height="42.662px" viewBox="0 0 249.971 42.662" enable-background="new 0 0 249.971 42.662"
	 xml:space="preserve">
<g>
	<path fill="#AFAFAF" d="M63.925,4.665v33.333H4.664V16.667H0v21.331v4.664h4.664h59.261h4.665v-4.664V4.665V0l0,0h-4.665H4.664H0
		v4.665v6.564l4.664-0.019V4.665H63.925"/>
	<path fill="#AFAFAF" d="M34.295,21.331v16.667H4.664V21.331H34.295 M38.959,16.667h-4.664H4.664H0v4.664v16.667v4.664h4.664h29.631
		h4.664v-4.664V21.331V16.667L38.959,16.667z"/>
	<g>
		<path fill="#AFAFAF" d="M94.126,11.509L90.63,13.58c-0.654-1.134-1.276-1.874-1.868-2.22c-0.617-0.395-1.413-0.592-2.386-0.592
			c-1.196,0-2.189,0.339-2.979,1.018c-0.789,0.666-1.184,1.505-1.184,2.516c0,1.394,1.036,2.516,3.107,3.366l2.849,1.166
			c2.318,0.937,4.014,2.081,5.087,3.431c1.073,1.351,1.609,3.006,1.609,4.967c0,2.627-0.875,4.797-2.626,6.512
			c-1.764,1.727-3.953,2.59-6.567,2.59c-2.479,0-4.526-0.734-6.141-2.201c-1.591-1.469-2.584-3.533-2.979-6.197l4.366-0.962
			c0.197,1.677,0.542,2.837,1.036,3.478c0.888,1.233,2.183,1.85,3.885,1.85c1.344,0,2.46-0.45,3.348-1.35
			c0.888-0.9,1.332-2.041,1.332-3.423c0-0.555-0.077-1.063-0.231-1.526c-0.154-0.462-0.395-0.888-0.721-1.275
			c-0.327-0.389-0.75-0.752-1.267-1.092c-0.518-0.339-1.135-0.663-1.85-0.971l-2.756-1.147c-3.91-1.652-5.864-4.069-5.864-7.251
			c0-2.146,0.82-3.94,2.46-5.383c1.64-1.455,3.681-2.183,6.123-2.183C89.706,6.699,92.277,8.303,94.126,11.509z"/>
		<path fill="#AFAFAF" d="M99.065,35.814l6.012-30.706l9.804,22.197l10.155-22.197l5.401,30.706h-4.421l-2.756-17.24l-8.454,18.554
			l-8.213-18.571l-3.07,17.258H99.065z"/>
		<path fill="#AFAFAF" d="M140.797,7.254v24.509h8.398v4.052h-12.709V7.254H140.797z"/>
		<path fill="#AFAFAF" d="M169.543,11.509l-3.496,2.071c-0.654-1.134-1.277-1.874-1.869-2.22c-0.617-0.395-1.412-0.592-2.386-0.592
			c-1.196,0-2.189,0.339-2.979,1.018c-0.789,0.666-1.184,1.505-1.184,2.516c0,1.394,1.036,2.516,3.107,3.366l2.849,1.166
			c2.318,0.937,4.014,2.081,5.087,3.431c1.073,1.351,1.609,3.006,1.609,4.967c0,2.627-0.876,4.797-2.626,6.512
			c-1.764,1.727-3.953,2.59-6.567,2.59c-2.479,0-4.526-0.734-6.142-2.201c-1.59-1.469-2.584-3.533-2.979-6.197l4.366-0.962
			c0.197,1.677,0.542,2.837,1.036,3.478c0.888,1.233,2.183,1.85,3.885,1.85c1.344,0,2.46-0.45,3.348-1.35
			c0.888-0.9,1.332-2.041,1.332-3.423c0-0.555-0.077-1.063-0.231-1.526c-0.154-0.462-0.396-0.888-0.722-1.275
			c-0.326-0.389-0.749-0.752-1.267-1.092c-0.519-0.339-1.135-0.663-1.851-0.971l-2.756-1.147c-3.909-1.652-5.863-4.069-5.863-7.251
			c0-2.146,0.82-3.94,2.46-5.383c1.64-1.455,3.681-2.183,6.122-2.183C165.121,6.699,167.693,8.303,169.543,11.509z"/>
		<path fill="#AFAFAF" d="M196.586,8.789v5.105c-2.49-2.084-5.068-3.126-7.732-3.126c-2.935,0-5.407,1.055-7.417,3.163
			c-2.022,2.097-3.034,4.661-3.034,7.695c0,2.996,1.012,5.524,3.034,7.584s4.501,3.089,7.437,3.089c1.517,0,2.805-0.246,3.865-0.74
			c0.592-0.246,1.205-0.579,1.841-0.998c0.636-0.42,1.304-0.926,2.007-1.518v5.198c-2.467,1.394-5.057,2.091-7.769,2.091
			c-4.082,0-7.565-1.425-10.452-4.273c-2.873-2.873-4.31-6.338-4.31-10.396c0-3.638,1.202-6.882,3.607-9.73
			c2.96-3.489,6.788-5.234,11.487-5.234C191.715,6.699,194.193,7.396,196.586,8.789z"/>
		<path fill="#AFAFAF" d="M211.699,23.644l8.842,12.171h-5.271l-8.158-11.69h-0.777v11.69h-4.31V7.254h5.05
			c3.773,0,6.499,0.709,8.176,2.127c1.851,1.579,2.775,3.663,2.775,6.253c0,2.022-0.58,3.761-1.738,5.216
			C215.127,22.306,213.598,23.236,211.699,23.644z M206.334,20.369h1.369c4.082,0,6.123-1.56,6.123-4.68
			c0-2.923-1.985-4.385-5.956-4.385h-1.536V20.369z"/>
		<path fill="#AFAFAF" d="M224.832,35.814V5.312l20.828,21.791V7.254h4.311v30.3l-20.828-21.735v19.996H224.832z"/>
	</g>
</g>
</svg>
