<?xml version="1.0" encoding="utf-8"?>
<!-- Generator: Adobe Illustrator 16.0.0, SVG Export Plug-In . SVG Version: 6.00 Build 0)  -->
<!DOCTYPE svg PUBLIC "-//W3C//DTD SVG 1.1//EN" "http://www.w3.org/Graphics/SVG/1.1/DTD/svg11.dtd">
<svg version="1.1" id="Layer_1" xmlns="http://www.w3.org/2000/svg" xmlns:xlink="http://www.w3.org/1999/xlink" x="0px" y="0px"
	 width="201px" height="201px" viewBox="0 0 201 201" enable-background="new 0 0 201 201" xml:space="preserve">
<g>
	<defs>
		<rect id="SVGID_1_" width="201" height="201"/>
	</defs>
	<clipPath id="SVGID_2_">
		<use xlink:href="#SVGID_1_"  overflow="visible"/>
	</clipPath>
	<g clip-path="url(#SVGID_2_)">
		<g>
			<g>
				<g opacity="0.3">
					
						<rect x="-26.024" y="64.826" transform="matrix(0.7071 0.7071 -0.7071 0.7071 95.4504 -56.6479)" width="284.258" height="44.138"/>
				</g>
				<g>
					
						<linearGradient id="SVGID_3_" gradientUnits="userSpaceOnUse" x1="509.4805" y1="388.752" x2="509.4805" y2="344.6123" gradientTransform="matrix(0.7071 0.7071 -0.7071 0.7071 15.1317 -534.6395)">
						<stop  offset="0" style="stop-color:#EAEAEA"/>
						<stop  offset="0.5496" style="stop-color:#F9F9F9"/>
						<stop  offset="0.9917" style="stop-color:#FFFFFF"/>
					</linearGradient>
					<polygon fill="url(#SVGID_3_)" points="201,201 0,-0.001 31.21,-31.211 232.211,169.789 					"/>
				</g>
			</g>
			<g>
				<g>
					<path fill="#8B8B8B" d="M72.908,35.541l-3.153-3.153l-2.175,2.175l3.042,3.042l-1.283,1.283l-3.042-3.042l-4.309,4.309
						l-1.366-1.366l9.05-9.05l4.52,4.52L72.908,35.541z"/>
					<path fill="#8B8B8B" d="M68.992,41.367c0.824-0.824,1.821-1.231,2.99-1.218c1.168,0.012,2.176,0.441,3.023,1.289
						c0.853,0.853,1.284,1.867,1.296,3.042c0.004,1.168-0.419,2.176-1.267,3.024C74.18,48.359,73.168,48.782,72,48.77
						c-1.169-0.02-2.185-0.46-3.049-1.325c-0.855-0.855-1.279-1.866-1.271-3.031C67.68,43.258,68.117,42.242,68.992,41.367z
						 M70.316,42.738c-0.57,0.571-0.868,1.175-0.896,1.812c-0.023,0.649,0.221,1.229,0.732,1.741
						c0.516,0.516,1.094,0.762,1.734,0.738c0.642-0.022,1.239-0.312,1.794-0.866c0.555-0.555,0.845-1.153,0.867-1.795
						c0.023-0.648-0.221-1.229-0.732-1.74c-0.504-0.504-1.08-0.744-1.729-0.721C71.438,41.929,70.848,42.207,70.316,42.738z"/>
					<path fill="#8B8B8B" d="M79.291,46.039l1.318,1.318l-0.51,0.51c0.496-0.012,0.885,0.029,1.167,0.124
						c0.288,0.093,0.563,0.271,0.826,0.533c0.348,0.348,0.598,0.825,0.75,1.43l-1.811,0.604c-0.07-0.43-0.225-0.764-0.463-1.002
						c-0.719-0.719-1.622-0.536-2.709,0.55l-2.96,2.96l-1.318-1.318L79.291,46.039z"/>
					<path fill="#8B8B8B" d="M89.473,47.838l-6.037,6.038l3.704,0.012l1.77,1.77l-4.877-0.082l-0.65,5.973l-1.711-1.711l0.521-4.297
						h-0.422l-2.198,2.198l-1.319-1.319l9.9-9.9L89.473,47.838z"/>
					<path fill="#8B8B8B" d="M93.646,60.393l1.319,1.319l-0.527,0.528c0.52-0.012,0.916,0.025,1.189,0.111
						c0.289,0.094,0.578,0.285,0.867,0.574c0.645,0.645,0.874,1.437,0.687,2.375c0.977-0.148,1.818,0.13,2.525,0.837
						c1.286,1.286,1.149,2.708-0.409,4.268l-3.529,3.529l-1.325-1.325l3.171-3.171c0.548-0.547,0.868-1,0.963-1.359
						c0.093-0.368-0.017-0.708-0.329-1.021c-0.363-0.363-0.765-0.491-1.204-0.384c-0.439,0.108-0.963,0.464-1.568,1.07l-2.948,2.949
						l-1.325-1.325l3.153-3.154c1.017-1.016,1.231-1.817,0.646-2.403c-0.371-0.371-0.78-0.503-1.229-0.396
						c-0.446,0.109-0.969,0.461-1.567,1.059l-2.948,2.949l-1.319-1.319L93.646,60.393z"/>
					<path fill="#8B8B8B" d="M105.175,78.253l-4.091-4.091c-0.434,0.504-0.654,1.029-0.662,1.576
						c-0.004,0.543,0.205,1.026,0.628,1.449c0.327,0.327,0.678,0.521,1.049,0.58c0.367,0.055,0.896,0.005,1.588-0.147l0.493,1.735
						c-0.465,0.122-0.897,0.191-1.299,0.208c-0.401,0.018-0.778-0.016-1.132-0.1s-0.688-0.222-1.005-0.413
						c-0.316-0.192-0.623-0.436-0.921-0.733c-0.852-0.852-1.262-1.809-1.229-2.872c0.034-1.067,0.508-2.055,1.418-2.966
						c0.903-0.902,1.884-1.383,2.942-1.442c1.055-0.047,1.998,0.345,2.83,1.177c0.841,0.841,1.237,1.773,1.19,2.796
						c-0.047,1.016-0.54,1.996-1.482,2.937L105.175,78.253z M104.9,75.821c0.52-0.887,0.428-1.682-0.275-2.385
						c-0.16-0.16-0.335-0.286-0.525-0.379c-0.189-0.092-0.388-0.149-0.595-0.173s-0.416-0.012-0.627,0.036
						c-0.211,0.047-0.42,0.131-0.627,0.252L104.9,75.821z"/>
					<path fill="#8B8B8B" d="M110.403,82.778c0.825-0.824,1.821-1.231,2.989-1.219s2.176,0.441,3.024,1.29
						c0.852,0.852,1.284,1.867,1.296,3.042c0.004,1.168-0.418,2.176-1.267,3.023c-0.855,0.856-1.867,1.279-3.036,1.266
						c-1.169-0.02-2.185-0.46-3.048-1.323c-0.855-0.855-1.279-1.866-1.271-3.031C109.091,84.669,109.528,83.653,110.403,82.778z
						 M111.728,84.149c-0.57,0.571-0.869,1.174-0.896,1.811c-0.022,0.649,0.222,1.229,0.733,1.741
						c0.516,0.516,1.094,0.762,1.734,0.738s1.239-0.312,1.794-0.866c0.555-0.556,0.844-1.153,0.867-1.795
						c0.023-0.648-0.221-1.229-0.732-1.74c-0.504-0.504-1.08-0.744-1.729-0.722C112.85,83.34,112.259,83.618,111.728,84.149z"/>
					<path fill="#8B8B8B" d="M120.701,87.449l1.325,1.324l-0.527,0.528c0.918,0.004,1.666,0.294,2.245,0.874
						c0.663,0.662,0.973,1.391,0.926,2.18c-0.035,0.676-0.455,1.416-1.26,2.221l-3.5,3.5l-1.324-1.324l3.188-3.189
						c0.563-0.562,0.873-1.029,0.933-1.4c0.065-0.372-0.102-0.758-0.504-1.16c-0.438-0.438-0.894-0.604-1.366-0.499
						c-0.465,0.106-1.054,0.515-1.765,1.226l-2.755,2.755l-1.325-1.325L120.701,87.449z"/>
					<path fill="#8B8B8B" d="M134.898,103.639l3.739,3.739l-0.299,0.299c-0.68,0.681-1.362,1.202-2.046,1.565
						c-0.641,0.328-1.357,0.518-2.15,0.568c-1.786,0.105-3.328-0.49-4.625-1.787c-1.267-1.267-1.894-2.809-1.882-4.625
						c0.016-1.821,0.666-3.375,1.952-4.66c1.312-1.312,2.887-1.967,4.718-1.964c1.837,0.001,3.415,0.659,4.731,1.976
						c0.707,0.707,1.222,1.512,1.547,2.416c0.297,0.875,0.404,1.92,0.322,3.135l-1.904-0.041c0.245-1.731-0.164-3.129-1.231-4.196
						c-0.958-0.958-2.091-1.431-3.399-1.419c-1.297,0-2.435,0.489-3.411,1.466c-1.009,1.009-1.478,2.2-1.407,3.575
						c0.07,1.281,0.5,2.316,1.29,3.107c0.672,0.672,1.502,1.049,2.49,1.13c0.992,0.078,1.839-0.169,2.538-0.743l-2.256-2.258
						L134.898,103.639z"/>
					<path fill="#8B8B8B" d="M142.418,109.166l-5.709,5.709l-1.318-1.318l5.709-5.709L142.418,109.166z M143.274,105.274
						c0.23-0.23,0.513-0.347,0.85-0.347c0.336,0,0.621,0.117,0.855,0.352c0.238,0.238,0.357,0.525,0.357,0.861
						c0.004,0.332-0.112,0.619-0.351,0.857s-0.526,0.356-0.862,0.356c-0.332,0.004-0.617-0.113-0.855-0.352
						s-0.357-0.525-0.357-0.861C142.91,105.805,143.032,105.517,143.274,105.274z"/>
					<path fill="#8B8B8B" d="M144.219,113.428l-4.479,4.479l-1.319-1.319l4.479-4.479l-0.562-0.562l1.23-1.231l0.562,0.562
						l2.093-2.092l1.319,1.319l-2.093,2.093l1.025,1.025l-1.23,1.23L144.219,113.428z"/>
					<path fill="#8B8B8B" d="M148.79,115.937l3.903,3.903l3.54-3.541l1.366,1.367l-9.05,9.05l-1.366-1.366l4.227-4.227l-3.903-3.903
						l-4.227,4.227l-1.366-1.366l9.05-9.051l1.366,1.367L148.79,115.937z"/>
					<path fill="#8B8B8B" d="M157.494,124.242l-3.276,3.276c-0.945,0.946-1.045,1.792-0.299,2.538s1.593,0.646,2.538-0.299
						l3.276-3.277l1.319,1.32l-3.306,3.306c-0.457,0.457-0.909,0.794-1.354,1.013c-0.406,0.188-0.864,0.266-1.372,0.234
						c-0.832-0.059-1.593-0.432-2.28-1.119c-0.684-0.684-1.055-1.441-1.114-2.275c-0.035-0.512,0.04-0.973,0.224-1.383
						c0.157-0.374,0.496-0.824,1.02-1.348l3.306-3.307L157.494,124.242z"/>
					<path fill="#8B8B8B" d="M168.227,126.592l-4.854,4.854c1.074-0.02,1.946,0.305,2.614,0.973c0.77,0.77,1.123,1.698,1.062,2.785
						c-0.059,1.082-0.514,2.049-1.366,2.9c-0.879,0.88-1.863,1.35-2.953,1.408c-1.083,0.059-2.016-0.304-2.797-1.085
						c-0.66-0.66-0.996-1.505-1.009-2.532l-0.598,0.598l-1.318-1.318l9.9-9.9L168.227,126.592z M164.275,136.814
						c0.547-0.547,0.845-1.141,0.892-1.781c0.051-0.653-0.15-1.206-0.604-1.659c-0.485-0.485-1.049-0.709-1.694-0.675
						c-0.636,0.037-1.225,0.322-1.765,0.861c-0.555,0.556-0.85,1.147-0.884,1.777c-0.043,0.637,0.178,1.197,0.662,1.682
						c0.457,0.457,1.006,0.666,1.646,0.627C163.179,137.608,163.76,137.33,164.275,136.814z"/>
				</g>
			</g>
		</g>
		<g>
			<path fill="#C1C1C1" d="M195.469,189.707l-5.581-5.581l0.961-0.961l5.581,5.581L195.469,189.707z M184.307,178.545l-5.581-5.581
				l0.961-0.961l5.581,5.581L184.307,178.545z M173.145,167.383l-5.581-5.581l0.961-0.961l5.581,5.581L173.145,167.383z
				 M161.982,156.221l-5.581-5.581l0.961-0.961l5.581,5.581L161.982,156.221z M150.82,145.059l-5.581-5.581l0.961-0.961l5.581,5.581
				L150.82,145.059z M139.658,133.896l-5.581-5.581l0.961-0.961l5.581,5.581L139.658,133.896z M128.496,122.734l-5.581-5.581
				l0.961-0.961l5.581,5.581L128.496,122.734z M117.334,111.572l-5.581-5.581l0.96-0.961l5.582,5.581L117.334,111.572z
				 M106.172,100.41l-5.581-5.581l0.96-0.961l5.581,5.581L106.172,100.41z M95.01,89.248l-5.581-5.582l0.96-0.96l5.581,5.581
				L95.01,89.248z M83.848,78.085l-5.581-5.581l0.96-0.96l5.581,5.581L83.848,78.085z M72.686,66.923l-5.581-5.581l0.96-0.96
				l5.581,5.581L72.686,66.923z M61.523,55.761l-5.581-5.581l0.96-0.96l5.581,5.581L61.523,55.761z M50.361,44.599l-5.582-5.582
				l0.96-0.96l5.582,5.582L50.361,44.599z M39.199,33.436l-5.581-5.581l0.96-0.96l5.581,5.581L39.199,33.436z M28.037,22.274
				l-5.581-5.581l0.96-0.96l5.581,5.581L28.037,22.274z M16.875,11.112l-5.581-5.581l0.96-0.96l5.581,5.581L16.875,11.112z"/>
		</g>
		<g>
			<path fill="#C1C1C1" d="M219.957,165.219l-5.581-5.581l0.961-0.961l5.581,5.581L219.957,165.219z M208.795,154.057l-5.581-5.581
				l0.961-0.961l5.581,5.581L208.795,154.057z M197.633,142.895l-5.581-5.581l0.961-0.961l5.581,5.581L197.633,142.895z
				 M186.471,131.732l-5.581-5.581l0.961-0.961l5.581,5.581L186.471,131.732z M175.309,120.57l-5.581-5.581l0.961-0.961l5.581,5.581
				L175.309,120.57z M164.146,109.408l-5.581-5.581l0.961-0.961l5.581,5.581L164.146,109.408z M152.984,98.245l-5.581-5.581
				l0.961-0.961l5.581,5.581L152.984,98.245z M141.822,87.083l-5.581-5.582l0.961-0.96l5.581,5.581L141.822,87.083z M130.66,75.92
				l-5.581-5.581l0.961-0.96l5.581,5.581L130.66,75.92z M119.498,64.758l-5.581-5.581l0.96-0.96l5.582,5.581L119.498,64.758z
				 M108.336,53.596l-5.581-5.581l0.96-0.96l5.581,5.581L108.336,53.596z M97.174,42.434l-5.581-5.581l0.96-0.96l5.581,5.581
				L97.174,42.434z M86.012,31.271l-5.581-5.581l0.96-0.96l5.581,5.581L86.012,31.271z M74.85,20.109l-5.582-5.581l0.96-0.96
				l5.582,5.581L74.85,20.109z M63.687,8.947l-5.581-5.581l0.96-0.96l5.581,5.581L63.687,8.947z M52.525-2.215l-5.581-5.581
				l0.96-0.96l5.581,5.581L52.525-2.215z M41.363-13.377l-5.581-5.581l0.96-0.96l5.581,5.581L41.363-13.377z"/>
		</g>
	</g>
</g>
</svg>
