<?xml version="1.0" encoding="utf-8"?>
<!-- Generator: Adobe Illustrator 16.0.0, SVG Export Plug-In . SVG Version: 6.00 Build 0)  -->
<!DOCTYPE svg PUBLIC "-//W3C//DTD SVG 1.1//EN" "http://www.w3.org/Graphics/SVG/1.1/DTD/svg11.dtd">
<svg version="1.1" id="Layer_1" xmlns="http://www.w3.org/2000/svg" xmlns:xlink="http://www.w3.org/1999/xlink" x="0px" y="0px"
	 width="150px" height="234px" viewBox="0 0 150 234" enable-background="new 0 0 150 234" xml:space="preserve">
<g>
	<g>
		<g opacity="0.3">
			<path d="M27.862,220.9c-0.078,0-0.155-0.019-0.228-0.057l-6.526-3.431l-6.524,3.431c-0.072,0.038-0.15,0.057-0.229,0.057
				c-0.102,0-0.203-0.031-0.288-0.094c-0.15-0.108-0.227-0.296-0.194-0.479l1.245-7.268l-5.279-5.146
				c-0.134-0.13-0.183-0.324-0.125-0.502c0.057-0.178,0.211-0.307,0.396-0.334l7.297-1.061l3.264-6.611
				c0.083-0.167,0.253-0.273,0.438-0.273l0,0c0.188,0,0.357,0.106,0.439,0.273l3.262,6.611l7.296,1.061
				c0.186,0.027,0.338,0.156,0.396,0.334c0.058,0.178,0.009,0.372-0.125,0.502l-5.279,5.146l1.247,7.268
				c0.032,0.184-0.044,0.37-0.195,0.479C28.065,220.869,27.965,220.9,27.862,220.9z"/>
			<path d="M21.108,199.624l3.376,6.843l7.552,1.098l-5.464,5.326l1.29,7.521l-6.754-3.552l-6.753,3.552l1.289-7.521l-5.465-5.326
				l7.552-1.098L21.108,199.624 M21.108,198.645c-0.373,0-0.714,0.211-0.879,0.547l-3.148,6.381l-7.042,1.022
				c-0.369,0.054-0.677,0.312-0.791,0.667c-0.115,0.355-0.02,0.744,0.247,1.006l5.097,4.965l-1.202,7.014
				c-0.063,0.368,0.088,0.74,0.39,0.959c0.171,0.124,0.373,0.188,0.576,0.188c0.156,0,0.312-0.037,0.456-0.112l6.297-3.312
				l6.298,3.312c0.145,0.075,0.301,0.112,0.456,0.112c0.203,0,0.405-0.062,0.576-0.188c0.302-0.221,0.453-0.591,0.39-0.959
				l-1.202-7.014l5.095-4.965c0.267-0.262,0.363-0.65,0.248-1.006c-0.115-0.354-0.422-0.613-0.791-0.667l-7.042-1.022l-3.148-6.381
				C21.822,198.855,21.481,198.645,21.108,198.645L21.108,198.645z"/>
		</g>
		<g>
			<g>
				<g>
					
						<linearGradient id="SVGID_1_" gradientUnits="userSpaceOnUse" x1="-302.8926" y1="160.0586" x2="-302.8926" y2="181.8271" gradientTransform="matrix(1 0 0 -1 324 379)">
						<stop  offset="0.0083" style="stop-color:#E9A900"/>
						<stop  offset="1" style="stop-color:#FFFA3F"/>
					</linearGradient>
					<path fill="url(#SVGID_1_)" d="M27.862,218.941c-0.078,0-0.155-0.02-0.228-0.058l-6.526-3.431l-6.524,3.431
						c-0.072,0.038-0.15,0.058-0.229,0.058c-0.102,0-0.203-0.032-0.288-0.094c-0.15-0.109-0.227-0.297-0.194-0.479l1.245-7.269
						l-5.279-5.146c-0.134-0.13-0.183-0.324-0.125-0.502c0.057-0.179,0.211-0.308,0.396-0.334l7.297-1.062l3.264-6.611
						c0.083-0.166,0.253-0.272,0.438-0.272l0,0c0.188,0,0.357,0.106,0.439,0.272l3.262,6.611l7.296,1.062
						c0.186,0.026,0.338,0.155,0.396,0.334c0.058,0.178,0.009,0.372-0.125,0.502l-5.279,5.146l1.247,7.269
						c0.032,0.184-0.044,0.37-0.195,0.479C28.065,218.909,27.965,218.941,27.862,218.941z"/>
					<path fill="#B78700" d="M21.108,197.664l3.376,6.843l7.552,1.099l-5.464,5.324l1.29,7.521l-6.754-3.551l-6.753,3.551
						l1.289-7.521l-5.465-5.324l7.552-1.099L21.108,197.664 M21.108,196.684c-0.373,0-0.714,0.213-0.879,0.547l-3.148,6.381
						l-7.042,1.023c-0.369,0.055-0.677,0.312-0.791,0.667c-0.115,0.355-0.02,0.744,0.247,1.005l5.097,4.967l-1.202,7.013
						c-0.063,0.368,0.088,0.739,0.39,0.959c0.171,0.124,0.373,0.188,0.576,0.188c0.156,0,0.312-0.037,0.456-0.113l6.297-3.312
						l6.298,3.312c0.145,0.076,0.301,0.113,0.456,0.113c0.203,0,0.405-0.063,0.576-0.188c0.302-0.22,0.453-0.591,0.39-0.959
						l-1.202-7.015l5.095-4.965c0.267-0.261,0.363-0.649,0.248-1.005c-0.115-0.354-0.422-0.612-0.791-0.667l-7.042-1.023
						l-3.148-6.381C21.822,196.896,21.481,196.684,21.108,196.684L21.108,196.684z"/>
				</g>
			</g>
		</g>
	</g>
	<g>
		<g opacity="0.3">
			<path d="M54.718,220.9c-0.078,0-0.156-0.019-0.229-0.057l-6.525-3.431l-6.525,3.431c-0.072,0.038-0.149,0.057-0.228,0.057
				c-0.103,0-0.203-0.031-0.288-0.094c-0.151-0.108-0.228-0.296-0.195-0.479l1.246-7.268l-5.28-5.146
				c-0.134-0.13-0.182-0.324-0.125-0.502c0.058-0.178,0.211-0.307,0.396-0.334l7.297-1.061l3.263-6.611
				c0.083-0.167,0.253-0.273,0.439-0.273l0,0c0.187,0,0.356,0.106,0.438,0.273l3.263,6.611l7.296,1.061
				c0.185,0.027,0.338,0.156,0.396,0.334c0.059,0.178,0.009,0.372-0.125,0.502l-5.279,5.146l1.247,7.268
				c0.032,0.184-0.044,0.37-0.194,0.479C54.921,220.869,54.819,220.9,54.718,220.9z"/>
			<path d="M47.965,199.624l3.376,6.843l7.552,1.098l-5.464,5.326l1.29,7.521l-6.754-3.552l-6.753,3.552l1.289-7.521l-5.466-5.326
				l7.553-1.098L47.965,199.624 M47.965,198.645c-0.373,0-0.714,0.211-0.879,0.547l-3.149,6.381l-7.042,1.022
				c-0.369,0.054-0.676,0.312-0.791,0.667c-0.115,0.355-0.019,0.744,0.248,1.006l5.096,4.965l-1.202,7.014
				c-0.062,0.368,0.089,0.74,0.391,0.959c0.171,0.124,0.373,0.188,0.576,0.188c0.155,0,0.312-0.037,0.456-0.112l6.297-3.312
				l6.298,3.312c0.144,0.075,0.3,0.112,0.456,0.112c0.203,0,0.405-0.062,0.576-0.188c0.302-0.221,0.453-0.591,0.39-0.959
				l-1.203-7.014l5.095-4.965c0.268-0.262,0.363-0.65,0.248-1.006c-0.114-0.354-0.422-0.613-0.791-0.667l-7.042-1.022l-3.147-6.381
				C48.678,198.855,48.338,198.645,47.965,198.645L47.965,198.645z"/>
		</g>
		<g>
			<g>
				<g>
					
						<linearGradient id="SVGID_2_" gradientUnits="userSpaceOnUse" x1="-276.0376" y1="160.0586" x2="-276.0376" y2="181.8271" gradientTransform="matrix(1 0 0 -1 324 379)">
						<stop  offset="0.0083" style="stop-color:#E9A900"/>
						<stop  offset="1" style="stop-color:#FFFA3F"/>
					</linearGradient>
					<path fill="url(#SVGID_2_)" d="M54.718,218.941c-0.078,0-0.156-0.02-0.229-0.058l-6.525-3.431l-6.525,3.431
						c-0.072,0.038-0.149,0.058-0.228,0.058c-0.103,0-0.203-0.032-0.288-0.094c-0.151-0.109-0.228-0.297-0.195-0.479l1.246-7.269
						l-5.28-5.146c-0.134-0.13-0.182-0.324-0.125-0.502c0.058-0.179,0.211-0.308,0.396-0.334l7.297-1.062l3.263-6.611
						c0.083-0.166,0.253-0.272,0.439-0.272l0,0c0.187,0,0.356,0.106,0.438,0.272l3.263,6.611l7.296,1.062
						c0.185,0.026,0.338,0.155,0.396,0.334c0.059,0.178,0.009,0.372-0.125,0.502l-5.279,5.146l1.247,7.269
						c0.032,0.184-0.044,0.37-0.194,0.479C54.921,218.909,54.819,218.941,54.718,218.941z"/>
					<path fill="#B78700" d="M47.965,197.664l3.376,6.843l7.552,1.099l-5.464,5.324l1.29,7.521l-6.754-3.551l-6.753,3.551
						l1.289-7.521l-5.466-5.324l7.553-1.099L47.965,197.664 M47.965,196.684c-0.373,0-0.714,0.213-0.879,0.547l-3.149,6.381
						l-7.042,1.023c-0.369,0.055-0.676,0.312-0.791,0.667c-0.115,0.355-0.019,0.744,0.248,1.005l5.096,4.967l-1.202,7.013
						c-0.062,0.368,0.089,0.739,0.391,0.959c0.171,0.124,0.373,0.188,0.576,0.188c0.155,0,0.312-0.037,0.456-0.113l6.297-3.312
						l6.298,3.312c0.144,0.076,0.3,0.113,0.456,0.113c0.203,0,0.405-0.063,0.576-0.188c0.302-0.22,0.453-0.591,0.39-0.959
						l-1.203-7.015l5.095-4.965c0.268-0.261,0.363-0.649,0.248-1.005c-0.114-0.354-0.422-0.612-0.791-0.667l-7.042-1.023
						l-3.147-6.381C48.678,196.896,48.338,196.684,47.965,196.684L47.965,196.684z"/>
				</g>
			</g>
		</g>
	</g>
	<g>
		<g opacity="0.3">
			<path d="M68.066,220.9c-0.102,0-0.203-0.031-0.288-0.094c-0.15-0.108-0.227-0.296-0.194-0.479l1.245-7.268l-5.278-5.146
				c-0.134-0.13-0.183-0.324-0.125-0.502s0.211-0.307,0.396-0.334l7.296-1.061l3.263-6.611c0.083-0.167,0.253-0.273,0.438-0.273
				c0.187,0,0.357,0.106,0.439,0.273l3.263,6.611l7.298,1.062c0.186,0.026,0.338,0.155,0.396,0.334
				c0.058,0.178,0.01,0.372-0.125,0.502l-5.278,5.146l1.246,7.269c0.03,0.185-0.046,0.37-0.195,0.479
				c-0.085,0.062-0.187,0.094-0.288,0.094c-0.078,0-0.156-0.02-0.229-0.058l-6.525-3.431l-6.524,3.431
				C68.223,220.883,68.145,220.9,68.066,220.9z"/>
			<path d="M74.819,199.624l3.377,6.843l7.552,1.098l-5.464,5.326l1.289,7.521l-6.754-3.552l-6.753,3.552l1.289-7.521l-5.464-5.326
				l7.552-1.098L74.819,199.624 M74.819,198.645L74.819,198.645c-0.373,0-0.714,0.211-0.879,0.547l-3.147,6.381l-7.042,1.022
				c-0.369,0.054-0.677,0.312-0.791,0.667c-0.115,0.355-0.02,0.744,0.248,1.006l5.095,4.965l-1.202,7.014
				c-0.063,0.368,0.088,0.74,0.39,0.959c0.171,0.124,0.373,0.188,0.576,0.188c0.156,0,0.312-0.037,0.456-0.112l6.297-3.312
				l6.298,3.312c0.145,0.075,0.301,0.112,0.456,0.112c0.203,0,0.405-0.062,0.576-0.188c0.302-0.221,0.453-0.591,0.39-0.959
				l-1.201-7.014l5.094-4.965c0.269-0.262,0.365-0.65,0.248-1.006c-0.114-0.354-0.422-0.613-0.791-0.667l-7.041-1.022l-3.148-6.381
				C75.533,198.855,75.192,198.645,74.819,198.645L74.819,198.645z"/>
		</g>
		<g>
			<g>
				<g>
					
						<linearGradient id="SVGID_3_" gradientUnits="userSpaceOnUse" x1="-249.1797" y1="160.0586" x2="-249.1797" y2="181.8271" gradientTransform="matrix(1 0 0 -1 324 379)">
						<stop  offset="0.0083" style="stop-color:#E9A900"/>
						<stop  offset="1" style="stop-color:#FFFA3F"/>
					</linearGradient>
					<path fill="url(#SVGID_3_)" d="M68.066,218.941c-0.102,0-0.203-0.032-0.288-0.094c-0.15-0.109-0.227-0.297-0.194-0.479
						l1.245-7.269l-5.278-5.146c-0.134-0.13-0.183-0.324-0.125-0.502c0.058-0.179,0.211-0.308,0.396-0.334l7.296-1.062l3.263-6.611
						c0.083-0.166,0.253-0.272,0.438-0.272c0.187,0,0.357,0.106,0.439,0.272l3.263,6.611l7.298,1.062
						c0.186,0.027,0.338,0.156,0.396,0.334c0.058,0.178,0.01,0.372-0.125,0.502l-5.278,5.146l1.246,7.268
						c0.03,0.184-0.046,0.37-0.195,0.479c-0.085,0.062-0.187,0.094-0.288,0.094c-0.078,0-0.156-0.019-0.229-0.057l-6.525-3.431
						l-6.524,3.431C68.223,218.923,68.145,218.941,68.066,218.941z"/>
					<path fill="#B78700" d="M74.819,197.664l3.377,6.843l7.552,1.099l-5.464,5.324l1.289,7.521l-6.754-3.551l-6.753,3.551
						l1.289-7.521l-5.464-5.324l7.552-1.099L74.819,197.664 M74.819,196.684L74.819,196.684c-0.373,0-0.714,0.213-0.879,0.547
						l-3.147,6.381l-7.042,1.023c-0.369,0.055-0.677,0.312-0.791,0.667c-0.115,0.355-0.02,0.744,0.248,1.005l5.095,4.965
						l-1.202,7.015c-0.063,0.368,0.088,0.739,0.39,0.959c0.171,0.124,0.373,0.188,0.576,0.188c0.156,0,0.312-0.037,0.456-0.113
						l6.297-3.312l6.298,3.312c0.145,0.076,0.301,0.113,0.456,0.113c0.203,0,0.405-0.063,0.576-0.188
						c0.302-0.22,0.453-0.591,0.39-0.959l-1.201-7.015l5.094-4.965c0.269-0.261,0.365-0.649,0.248-1.005
						c-0.114-0.354-0.422-0.612-0.791-0.667l-7.041-1.023l-3.148-6.381C75.533,196.896,75.192,196.684,74.819,196.684
						L74.819,196.684z"/>
				</g>
			</g>
		</g>
	</g>
	<g>
		<g opacity="0.5">
			<g opacity="0.3">
				<path d="M122.137,220.9c-0.103,0-0.203-0.031-0.289-0.094c-0.149-0.108-0.227-0.296-0.194-0.479l1.247-7.268l-5.279-5.146
					c-0.134-0.13-0.182-0.324-0.123-0.502c0.057-0.178,0.211-0.307,0.396-0.334l7.296-1.061l3.262-6.611
					c0.083-0.167,0.253-0.273,0.439-0.273c0.186,0,0.355,0.106,0.438,0.273l3.263,6.611l7.297,1.061
					c0.186,0.027,0.339,0.156,0.396,0.334c0.059,0.178,0.01,0.372-0.124,0.502l-5.28,5.146l1.248,7.268
					c0.03,0.184-0.045,0.37-0.195,0.479c-0.086,0.062-0.188,0.094-0.288,0.094c-0.078,0-0.156-0.019-0.229-0.057l-6.524-3.431
					l-6.524,3.431C122.293,220.883,122.215,220.9,122.137,220.9z"/>
				<path d="M128.889,199.624l3.377,6.843l7.553,1.098l-5.465,5.326l1.29,7.521l-6.755-3.552l-6.752,3.552l1.289-7.521l-5.463-5.326
					l7.551-1.098L128.889,199.624 M128.889,198.645c-0.372,0-0.713,0.211-0.879,0.547l-3.147,6.381l-7.04,1.022
					c-0.369,0.054-0.676,0.312-0.791,0.667s-0.02,0.744,0.248,1.006l5.096,4.965l-1.203,7.014c-0.063,0.368,0.088,0.738,0.39,0.959
					c0.171,0.124,0.373,0.188,0.575,0.188c0.156,0,0.312-0.037,0.457-0.112l6.297-3.312l6.298,3.312
					c0.144,0.075,0.3,0.112,0.456,0.112c0.203,0,0.404-0.062,0.576-0.188c0.302-0.221,0.453-0.591,0.39-0.959l-1.203-7.014
					l5.097-4.965c0.268-0.262,0.363-0.65,0.248-1.006c-0.115-0.354-0.423-0.613-0.791-0.667l-7.043-1.022l-3.147-6.381
					C129.604,198.855,129.262,198.645,128.889,198.645L128.889,198.645z"/>
			</g>
			<g>
				<g>
					<g>
						
							<linearGradient id="SVGID_4_" gradientUnits="userSpaceOnUse" x1="-195.1079" y1="160.0586" x2="-195.1079" y2="181.8271" gradientTransform="matrix(1 0 0 -1 324 379)">
							<stop  offset="0.0083" style="stop-color:#D4D4D4"/>
							<stop  offset="1" style="stop-color:#FFFFFF"/>
						</linearGradient>
						<path fill="url(#SVGID_4_)" d="M122.137,218.941c-0.103,0-0.203-0.032-0.289-0.094c-0.149-0.109-0.227-0.297-0.194-0.479
							l1.247-7.269l-5.279-5.146c-0.134-0.13-0.182-0.324-0.123-0.502c0.057-0.179,0.211-0.308,0.396-0.334l7.296-1.062l3.262-6.611
							c0.083-0.166,0.253-0.272,0.439-0.272c0.186,0,0.355,0.106,0.438,0.272l3.263,6.611l7.297,1.062
							c0.186,0.026,0.339,0.155,0.396,0.334c0.059,0.178,0.01,0.372-0.124,0.502l-5.28,5.146l1.248,7.269
							c0.03,0.184-0.045,0.37-0.195,0.479c-0.086,0.062-0.188,0.094-0.288,0.094c-0.078,0-0.156-0.02-0.229-0.058l-6.524-3.431
							l-6.524,3.431C122.293,218.923,122.215,218.941,122.137,218.941z"/>
						<path fill="#A5A5A5" d="M128.889,197.664l3.377,6.843l7.553,1.099l-5.465,5.324l1.29,7.521l-6.755-3.551l-6.752,3.551
							l1.289-7.521l-5.463-5.324l7.551-1.099L128.889,197.664 M128.889,196.684c-0.372,0-0.713,0.213-0.879,0.547l-3.147,6.381
							l-7.04,1.023c-0.369,0.055-0.676,0.312-0.791,0.667s-0.02,0.744,0.248,1.005l5.096,4.965l-1.203,7.015
							c-0.063,0.368,0.088,0.739,0.39,0.959c0.171,0.124,0.373,0.188,0.575,0.188c0.156,0,0.312-0.037,0.457-0.113l6.297-3.312
							l6.298,3.312c0.144,0.076,0.3,0.113,0.456,0.113c0.203,0,0.404-0.063,0.576-0.188c0.302-0.22,0.453-0.591,0.39-0.959
							l-1.203-7.015l5.097-4.965c0.268-0.261,0.363-0.649,0.248-1.005c-0.115-0.354-0.423-0.612-0.791-0.667l-7.043-1.023
							l-3.147-6.381C129.604,196.896,129.262,196.684,128.889,196.684L128.889,196.684z"/>
					</g>
				</g>
			</g>
		</g>
	</g>
	<g>
		<g>
			<g>
				<defs>
					<rect id="SVGID_5_" x="89.75" y="196.684" width="11.927" height="24.787"/>
				</defs>
				<clipPath id="SVGID_6_">
					<use xlink:href="#SVGID_5_"  overflow="visible"/>
				</clipPath>
				<g clip-path="url(#SVGID_6_)">
					<g opacity="0.3">
						<path d="M94.924,220.921c-0.102,0-0.202-0.032-0.287-0.094c-0.15-0.109-0.227-0.296-0.195-0.479l1.246-7.268l-5.279-5.146
							c-0.134-0.129-0.182-0.324-0.123-0.502c0.058-0.178,0.211-0.307,0.396-0.334l7.297-1.061l3.262-6.611
							c0.082-0.167,0.253-0.273,0.439-0.273c0.186,0,0.356,0.106,0.438,0.273l3.264,6.611l7.297,1.061
							c0.185,0.027,0.338,0.156,0.396,0.334s0.011,0.372-0.124,0.502l-5.279,5.146l1.246,7.268c0.031,0.185-0.045,0.37-0.194,0.479
							c-0.085,0.062-0.187,0.094-0.288,0.094c-0.078,0-0.156-0.019-0.229-0.057l-6.525-3.431l-6.524,3.431
							C95.082,220.902,95.002,220.921,94.924,220.921z"/>
						<path d="M101.678,199.645l3.377,6.842l7.552,1.099l-5.464,5.325l1.289,7.521l-6.754-3.552l-6.754,3.552l1.289-7.521
							l-5.463-5.325l7.552-1.099L101.678,199.645 M101.678,198.663L101.678,198.663c-0.373,0-0.715,0.212-0.879,0.547l-3.148,6.381
							l-7.041,1.023c-0.369,0.054-0.676,0.312-0.791,0.667c-0.115,0.354-0.02,0.744,0.248,1.005l5.096,4.965l-1.203,7.015
							c-0.062,0.367,0.088,0.739,0.391,0.959c0.171,0.123,0.373,0.188,0.576,0.188c0.156,0,0.312-0.037,0.455-0.113l6.298-3.311
							l6.298,3.311c0.145,0.076,0.3,0.113,0.456,0.113c0.203,0,0.405-0.062,0.575-0.188c0.303-0.221,0.453-0.592,0.391-0.959
							l-1.202-7.015l5.097-4.965c0.267-0.261,0.362-0.65,0.248-1.005c-0.115-0.355-0.424-0.613-0.793-0.668l-7.041-1.022
							l-3.148-6.381C102.392,198.875,102.051,198.663,101.678,198.663L101.678,198.663z"/>
					</g>
					<g>
						<g>
							<g>
								
									<linearGradient id="SVGID_7_" gradientUnits="userSpaceOnUse" x1="-222.3208" y1="160.0391" x2="-222.3208" y2="181.8066" gradientTransform="matrix(1 0 0 -1 324 379)">
									<stop  offset="0.0083" style="stop-color:#E9A900"/>
									<stop  offset="1" style="stop-color:#FFFA3F"/>
								</linearGradient>
								<path fill="url(#SVGID_7_)" d="M94.924,218.961c-0.102,0-0.202-0.031-0.287-0.094c-0.15-0.109-0.227-0.297-0.195-0.479
									l1.246-7.269l-5.279-5.146c-0.134-0.131-0.182-0.324-0.123-0.502c0.058-0.179,0.211-0.308,0.396-0.334l7.297-1.062
									l3.262-6.611c0.082-0.167,0.253-0.272,0.439-0.272c0.186,0,0.356,0.105,0.438,0.272l3.264,6.611l7.297,1.062
									c0.185,0.026,0.338,0.155,0.396,0.334c0.058,0.178,0.011,0.371-0.124,0.502l-5.279,5.146l1.246,7.269
									c0.031,0.184-0.045,0.369-0.194,0.479c-0.085,0.062-0.187,0.094-0.288,0.094c-0.078,0-0.156-0.02-0.229-0.057l-6.525-3.432
									l-6.524,3.432C95.082,218.941,95.002,218.961,94.924,218.961z"/>
								<path fill="#B78700" d="M101.678,197.684l3.377,6.844l7.552,1.098l-5.464,5.325l1.289,7.521l-6.754-3.551l-6.754,3.551
									l1.289-7.521l-5.463-5.325l7.552-1.098L101.678,197.684 M101.678,196.703L101.678,196.703c-0.373,0-0.715,0.212-0.879,0.547
									l-3.148,6.381l-7.041,1.023c-0.369,0.054-0.676,0.312-0.791,0.666s-0.02,0.744,0.248,1.006l5.096,4.965l-1.203,7.014
									c-0.062,0.368,0.088,0.74,0.391,0.959c0.171,0.125,0.373,0.188,0.576,0.188c0.156,0,0.312-0.037,0.455-0.113l6.298-3.312
									l6.298,3.312c0.145,0.076,0.3,0.113,0.456,0.113c0.203,0,0.405-0.063,0.575-0.188c0.303-0.22,0.453-0.591,0.391-0.959
									l-1.202-7.014l5.097-4.965c0.267-0.262,0.362-0.65,0.248-1.006c-0.115-0.354-0.424-0.612-0.793-0.666l-7.041-1.023
									l-3.148-6.381C102.392,196.915,102.051,196.703,101.678,196.703L101.678,196.703z"/>
							</g>
						</g>
					</g>
				</g>
			</g>
		</g>
		<g opacity="0.3" enable-background="new    ">
			<g>
				<defs>
					<rect id="SVGID_8_" x="101.677" y="196.684" width="11.927" height="24.787"/>
				</defs>
				<clipPath id="SVGID_9_">
					<use xlink:href="#SVGID_8_"  overflow="visible"/>
				</clipPath>
				<g clip-path="url(#SVGID_9_)">
					<g opacity="0.3">
						<path d="M108.429,220.921c-0.078,0-0.156-0.019-0.229-0.057l-6.523-3.431l-6.525,3.431c-0.072,0.038-0.15,0.057-0.229,0.057
							c-0.103,0-0.203-0.032-0.289-0.094c-0.149-0.109-0.227-0.296-0.194-0.479l1.246-7.268l-5.279-5.146
							c-0.134-0.129-0.182-0.324-0.124-0.502c0.059-0.178,0.211-0.307,0.396-0.334l7.297-1.061l3.263-6.611
							c0.083-0.167,0.253-0.273,0.439-0.273l0,0c0.187,0,0.356,0.106,0.438,0.273l3.262,6.611l7.297,1.061
							c0.186,0.027,0.339,0.156,0.396,0.334c0.059,0.178,0.01,0.372-0.124,0.502l-5.278,5.146l1.246,7.268
							c0.03,0.185-0.045,0.37-0.195,0.479C108.631,220.889,108.53,220.921,108.429,220.921z"/>
						<path d="M101.676,199.645l3.376,6.842l7.552,1.099l-5.464,5.325l1.289,7.521l-6.753-3.552l-6.754,3.552l1.289-7.521
							l-5.465-5.325l7.553-1.099L101.676,199.645 M101.676,198.663c-0.373,0-0.715,0.212-0.879,0.547l-3.148,6.381l-7.042,1.023
							c-0.369,0.054-0.677,0.312-0.792,0.667c-0.115,0.354-0.02,0.744,0.248,1.005l5.096,4.965l-1.201,7.015
							c-0.063,0.367,0.088,0.738,0.39,0.959c0.171,0.123,0.373,0.188,0.575,0.188c0.156,0,0.312-0.037,0.457-0.113l6.298-3.311
							l6.297,3.311c0.144,0.076,0.3,0.113,0.456,0.113c0.203,0,0.404-0.062,0.576-0.188c0.302-0.22,0.453-0.592,0.39-0.959
							l-1.202-7.015l5.096-4.965c0.268-0.261,0.363-0.65,0.248-1.005s-0.423-0.613-0.791-0.668l-7.041-1.022l-3.148-6.381
							C102.39,198.875,102.049,198.663,101.676,198.663L101.676,198.663z"/>
					</g>
					<g>
						<g>
							<g>
								
									<linearGradient id="SVGID_10_" gradientUnits="userSpaceOnUse" x1="-222.3237" y1="160.0391" x2="-222.3237" y2="181.8066" gradientTransform="matrix(1 0 0 -1 324 379)">
									<stop  offset="0.0083" style="stop-color:#AAAAAA"/>
									<stop  offset="1" style="stop-color:#E7E7E7"/>
								</linearGradient>
								<path fill="url(#SVGID_10_)" d="M108.429,218.961c-0.078,0-0.156-0.02-0.229-0.057l-6.523-3.432l-6.525,3.432
									c-0.072,0.037-0.15,0.057-0.229,0.057c-0.103,0-0.203-0.031-0.289-0.094c-0.149-0.109-0.227-0.297-0.194-0.479l1.246-7.269
									l-5.279-5.146c-0.134-0.131-0.182-0.324-0.124-0.502c0.059-0.179,0.211-0.308,0.396-0.334l7.297-1.062l3.263-6.611
									c0.083-0.167,0.253-0.272,0.439-0.272l0,0c0.187,0,0.356,0.105,0.438,0.272l3.262,6.611l7.297,1.062
									c0.186,0.026,0.339,0.155,0.396,0.334c0.059,0.178,0.01,0.371-0.124,0.502l-5.278,5.146l1.246,7.269
									c0.03,0.184-0.045,0.369-0.195,0.479C108.631,218.93,108.53,218.961,108.429,218.961z"/>
								<path fill="#878787" d="M101.676,197.684l3.376,6.844l7.552,1.098l-5.464,5.325l1.289,7.521l-6.753-3.551l-6.754,3.551
									l1.289-7.521l-5.465-5.325l7.553-1.098L101.676,197.684 M101.676,196.703c-0.373,0-0.715,0.212-0.879,0.547l-3.148,6.381
									l-7.042,1.023c-0.369,0.054-0.677,0.312-0.792,0.666c-0.115,0.355-0.02,0.744,0.248,1.006l5.096,4.965l-1.201,7.014
									c-0.063,0.368,0.088,0.739,0.39,0.959c0.171,0.125,0.373,0.188,0.575,0.188c0.156,0,0.312-0.037,0.457-0.113l6.298-3.312
									l6.297,3.312c0.144,0.076,0.3,0.113,0.456,0.113c0.203,0,0.404-0.063,0.576-0.188c0.302-0.219,0.453-0.591,0.39-0.959
									l-1.202-7.014l5.096-4.965c0.268-0.262,0.363-0.65,0.248-1.006c-0.115-0.354-0.423-0.612-0.791-0.666l-7.041-1.023
									l-3.148-6.381C102.39,196.915,102.049,196.703,101.676,196.703L101.676,196.703z"/>
							</g>
						</g>
					</g>
				</g>
			</g>
		</g>
	</g>
</g>
</svg>
