<?xml version="1.0" encoding="utf-8"?>
<!-- Generator: Adobe Illustrator 16.0.0, SVG Export Plug-In . SVG Version: 6.00 Build 0)  -->
<!DOCTYPE svg PUBLIC "-//W3C//DTD SVG 1.1//EN" "http://www.w3.org/Graphics/SVG/1.1/DTD/svg11.dtd">
<svg version="1.1" id="Layer_1" xmlns="http://www.w3.org/2000/svg" xmlns:xlink="http://www.w3.org/1999/xlink" x="0px" y="0px"
	 width="150px" height="234px" viewBox="0 0 150 234" enable-background="new 0 0 150 234" xml:space="preserve">
<g>
	<g>
		<g opacity="0.3">
			<path d="M28.044,220.901c-0.078,0-0.156-0.019-0.228-0.057l-6.526-3.431l-6.525,3.431c-0.072,0.038-0.15,0.057-0.228,0.057
				c-0.102,0-0.203-0.032-0.288-0.094c-0.151-0.109-0.227-0.296-0.195-0.479l1.246-7.268l-5.28-5.146
				c-0.134-0.13-0.182-0.324-0.125-0.502s0.211-0.307,0.396-0.334l7.297-1.061l3.263-6.611c0.083-0.167,0.253-0.273,0.439-0.273l0,0
				c0.187,0,0.357,0.106,0.439,0.273l3.262,6.611l7.296,1.061c0.185,0.027,0.338,0.156,0.396,0.334
				c0.058,0.178,0.009,0.372-0.125,0.502l-5.279,5.146l1.247,7.268c0.032,0.184-0.044,0.37-0.195,0.479
				C28.247,220.869,28.146,220.901,28.044,220.901z"/>
			<path d="M21.29,199.624l3.376,6.843l7.552,1.098l-5.464,5.325l1.29,7.521l-6.754-3.551l-6.753,3.551l1.289-7.521l-5.465-5.325
				l7.552-1.098L21.29,199.624 M21.29,198.644c-0.373,0-0.714,0.212-0.879,0.547l-3.149,6.381l-7.042,1.023
				c-0.369,0.054-0.676,0.312-0.791,0.667s-0.019,0.744,0.248,1.005l5.096,4.966l-1.202,7.013c-0.063,0.368,0.088,0.74,0.39,0.959
				c0.171,0.124,0.373,0.188,0.576,0.188c0.156,0,0.312-0.037,0.456-0.113l6.297-3.311l6.298,3.311
				c0.144,0.076,0.3,0.113,0.456,0.113c0.203,0,0.405-0.063,0.576-0.188c0.302-0.22,0.453-0.591,0.39-0.959l-1.203-7.014
				l5.095-4.965c0.267-0.261,0.363-0.65,0.248-1.005s-0.422-0.613-0.791-0.667l-7.042-1.023l-3.148-6.381
				C22.004,198.855,21.663,198.644,21.29,198.644L21.29,198.644z"/>
		</g>
		<g>
			<g>
				<g>
					<linearGradient id="SVGID_1_" gradientUnits="userSpaceOnUse" x1="21.2896" y1="218.9414" x2="21.2896" y2="197.1738">
						<stop  offset="0.0083" style="stop-color:#E9A900"/>
						<stop  offset="1" style="stop-color:#FFFA3F"/>
					</linearGradient>
					<path fill="url(#SVGID_1_)" d="M28.044,218.941c-0.078,0-0.156-0.019-0.228-0.057l-6.526-3.431l-6.525,3.431
						c-0.072,0.038-0.15,0.057-0.228,0.057c-0.102,0-0.203-0.032-0.288-0.094c-0.151-0.109-0.227-0.296-0.195-0.479l1.246-7.268
						l-5.28-5.146c-0.134-0.13-0.182-0.324-0.125-0.502s0.211-0.307,0.396-0.334l7.297-1.061l3.263-6.611
						c0.083-0.167,0.253-0.273,0.439-0.273l0,0c0.187,0,0.357,0.106,0.439,0.273l3.262,6.611l7.296,1.061
						c0.185,0.027,0.338,0.156,0.396,0.334c0.058,0.178,0.009,0.372-0.125,0.502l-5.279,5.146l1.247,7.268
						c0.032,0.184-0.044,0.37-0.195,0.479C28.247,218.909,28.146,218.941,28.044,218.941z"/>
					<path fill="#B78700" d="M21.29,197.664l3.376,6.843l7.552,1.098l-5.464,5.325l1.29,7.521L21.29,214.9l-6.753,3.551l1.289-7.521
						l-5.465-5.325l7.552-1.098L21.29,197.664 M21.29,196.684c-0.373,0-0.714,0.212-0.879,0.547l-3.149,6.381l-7.042,1.023
						c-0.369,0.054-0.676,0.312-0.791,0.667s-0.019,0.744,0.248,1.005l5.096,4.966l-1.202,7.013c-0.063,0.368,0.088,0.74,0.39,0.959
						c0.171,0.124,0.373,0.188,0.576,0.188c0.156,0,0.312-0.037,0.456-0.113l6.297-3.311l6.298,3.311
						c0.144,0.076,0.3,0.113,0.456,0.113c0.203,0,0.405-0.063,0.576-0.188c0.302-0.22,0.453-0.591,0.39-0.959l-1.203-7.014
						l5.095-4.965c0.267-0.261,0.363-0.65,0.248-1.005s-0.422-0.613-0.791-0.667l-7.042-1.023l-3.148-6.381
						C22.004,196.896,21.663,196.684,21.29,196.684L21.29,196.684z"/>
				</g>
			</g>
		</g>
	</g>
	<g>
		<g opacity="0.3">
			<path d="M54.899,220.901c-0.078,0-0.156-0.019-0.228-0.057l-6.526-3.431l-6.525,3.431c-0.072,0.038-0.15,0.057-0.228,0.057
				c-0.102,0-0.203-0.032-0.288-0.094c-0.151-0.109-0.227-0.296-0.195-0.479l1.246-7.268l-5.28-5.146
				c-0.134-0.13-0.182-0.324-0.125-0.502s0.211-0.307,0.396-0.334l7.297-1.061l3.263-6.611c0.083-0.167,0.253-0.273,0.439-0.273l0,0
				c0.187,0,0.357,0.106,0.439,0.273l3.262,6.611l7.296,1.061c0.185,0.027,0.338,0.156,0.396,0.334
				c0.058,0.178,0.009,0.372-0.125,0.502l-5.279,5.146l1.247,7.268c0.032,0.184-0.044,0.37-0.195,0.479
				C55.102,220.869,55.001,220.901,54.899,220.901z"/>
			<path d="M48.146,199.624l3.376,6.843l7.552,1.098l-5.464,5.325l1.29,7.521l-6.754-3.551l-6.753,3.551l1.289-7.521l-5.465-5.325
				l7.552-1.098L48.146,199.624 M48.146,198.644c-0.373,0-0.714,0.212-0.879,0.547l-3.149,6.381l-7.042,1.023
				c-0.369,0.054-0.676,0.312-0.791,0.667s-0.019,0.744,0.248,1.005l5.096,4.966l-1.202,7.013c-0.063,0.368,0.088,0.74,0.39,0.959
				c0.171,0.124,0.373,0.188,0.576,0.188c0.156,0,0.312-0.037,0.456-0.113l6.297-3.311l6.298,3.311
				c0.144,0.076,0.3,0.113,0.456,0.113c0.203,0,0.405-0.063,0.576-0.188c0.302-0.22,0.453-0.591,0.39-0.959l-1.203-7.014
				l5.095-4.965c0.267-0.261,0.363-0.65,0.248-1.005s-0.422-0.613-0.791-0.667l-7.042-1.023l-3.148-6.381
				C48.859,198.855,48.519,198.644,48.146,198.644L48.146,198.644z"/>
		</g>
		<g>
			<g>
				<g>
					<linearGradient id="SVGID_2_" gradientUnits="userSpaceOnUse" x1="48.145" y1="218.9414" x2="48.145" y2="197.1738">
						<stop  offset="0.0083" style="stop-color:#E9A900"/>
						<stop  offset="1" style="stop-color:#FFFA3F"/>
					</linearGradient>
					<path fill="url(#SVGID_2_)" d="M54.899,218.941c-0.078,0-0.156-0.019-0.228-0.057l-6.526-3.431l-6.525,3.431
						c-0.072,0.038-0.15,0.057-0.228,0.057c-0.102,0-0.203-0.032-0.288-0.094c-0.151-0.109-0.227-0.296-0.195-0.479l1.246-7.268
						l-5.28-5.146c-0.134-0.13-0.182-0.324-0.125-0.502s0.211-0.307,0.396-0.334l7.297-1.061l3.263-6.611
						c0.083-0.167,0.253-0.273,0.439-0.273l0,0c0.187,0,0.357,0.106,0.439,0.273l3.262,6.611l7.296,1.061
						c0.185,0.027,0.338,0.156,0.396,0.334c0.058,0.178,0.009,0.372-0.125,0.502l-5.279,5.146l1.247,7.268
						c0.032,0.184-0.044,0.37-0.195,0.479C55.102,218.909,55.001,218.941,54.899,218.941z"/>
					<path fill="#B78700" d="M48.146,197.664l3.376,6.843l7.552,1.098l-5.464,5.325l1.29,7.521l-6.754-3.551l-6.753,3.551
						l1.289-7.521l-5.465-5.325l7.552-1.098L48.146,197.664 M48.146,196.684c-0.373,0-0.714,0.212-0.879,0.547l-3.149,6.381
						l-7.042,1.023c-0.369,0.054-0.676,0.312-0.791,0.667s-0.019,0.744,0.248,1.005l5.096,4.966l-1.202,7.013
						c-0.063,0.368,0.088,0.74,0.39,0.959c0.171,0.124,0.373,0.188,0.576,0.188c0.156,0,0.312-0.037,0.456-0.113l6.297-3.311
						l6.298,3.311c0.144,0.076,0.3,0.113,0.456,0.113c0.203,0,0.405-0.063,0.576-0.188c0.302-0.22,0.453-0.591,0.39-0.959
						l-1.203-7.014l5.095-4.965c0.267-0.261,0.363-0.65,0.248-1.005s-0.422-0.613-0.791-0.667l-7.042-1.023l-3.148-6.381
						C48.859,196.896,48.519,196.684,48.146,196.684L48.146,196.684z"/>
				</g>
			</g>
		</g>
	</g>
	<g>
		<g opacity="0.3">
			<path d="M68.248,220.901c-0.102,0-0.203-0.032-0.288-0.094c-0.151-0.109-0.227-0.296-0.195-0.479l1.246-7.268l-5.279-5.146
				c-0.134-0.13-0.182-0.324-0.125-0.502c0.058-0.178,0.211-0.307,0.396-0.334l7.296-1.061l3.262-6.611
				c0.083-0.167,0.253-0.273,0.439-0.273s0.357,0.106,0.439,0.273l3.263,6.611L86,207.079c0.185,0.027,0.338,0.156,0.396,0.334
				s0.01,0.372-0.124,0.502l-5.279,5.146l1.246,7.268c0.031,0.184-0.045,0.37-0.195,0.479c-0.085,0.062-0.187,0.094-0.288,0.094
				c-0.078,0-0.156-0.019-0.229-0.057l-6.525-3.431l-6.525,3.431C68.404,220.883,68.326,220.901,68.248,220.901z"/>
			<path d="M75.001,199.624l3.377,6.843l7.552,1.098l-5.464,5.325l1.289,7.521l-6.754-3.551l-6.753,3.551l1.289-7.521l-5.464-5.325
				l7.552-1.098L75.001,199.624 M75.001,198.644L75.001,198.644c-0.373,0-0.714,0.212-0.879,0.547l-3.148,6.381l-7.042,1.023
				c-0.369,0.054-0.676,0.312-0.791,0.667s-0.019,0.744,0.248,1.005l5.095,4.965l-1.202,7.014c-0.063,0.368,0.088,0.74,0.39,0.959
				c0.171,0.124,0.373,0.188,0.576,0.188c0.156,0,0.312-0.037,0.456-0.113l6.297-3.311l6.298,3.311
				c0.144,0.076,0.3,0.113,0.456,0.113c0.203,0,0.405-0.063,0.576-0.188c0.302-0.22,0.453-0.591,0.39-0.959l-1.202-7.014
				l5.095-4.965c0.268-0.261,0.364-0.65,0.248-1.005c-0.115-0.354-0.422-0.613-0.791-0.667l-7.041-1.023l-3.149-6.381
				C75.715,198.855,75.374,198.644,75.001,198.644L75.001,198.644z"/>
		</g>
		<g>
			<g>
				<g>
					<linearGradient id="SVGID_3_" gradientUnits="userSpaceOnUse" x1="75.0015" y1="218.9414" x2="75.0015" y2="197.1738">
						<stop  offset="0.0083" style="stop-color:#E9A900"/>
						<stop  offset="1" style="stop-color:#FFFA3F"/>
					</linearGradient>
					<path fill="url(#SVGID_3_)" d="M68.248,218.941c-0.102,0-0.203-0.032-0.288-0.094c-0.151-0.109-0.227-0.296-0.195-0.479
						l1.246-7.268l-5.279-5.146c-0.134-0.13-0.182-0.324-0.125-0.502c0.058-0.178,0.211-0.307,0.396-0.334l7.296-1.061l3.262-6.611
						c0.083-0.167,0.253-0.273,0.439-0.273s0.357,0.106,0.439,0.273l3.263,6.611L86,205.119c0.185,0.027,0.338,0.156,0.396,0.334
						s0.01,0.372-0.124,0.502l-5.279,5.146l1.246,7.268c0.031,0.184-0.045,0.37-0.195,0.479c-0.085,0.062-0.187,0.094-0.288,0.094
						c-0.078,0-0.156-0.019-0.229-0.057l-6.525-3.431l-6.525,3.431C68.404,218.923,68.326,218.941,68.248,218.941z"/>
					<path fill="#B78700" d="M75.001,197.664l3.377,6.843l7.552,1.098l-5.464,5.325l1.289,7.521l-6.754-3.551l-6.753,3.551
						l1.289-7.521l-5.464-5.325l7.552-1.098L75.001,197.664 M75.001,196.684L75.001,196.684c-0.373,0-0.714,0.212-0.879,0.547
						l-3.148,6.381l-7.042,1.023c-0.369,0.054-0.676,0.312-0.791,0.667s-0.019,0.744,0.248,1.005l5.095,4.965l-1.202,7.014
						c-0.063,0.368,0.088,0.74,0.39,0.959c0.171,0.124,0.373,0.188,0.576,0.188c0.156,0,0.312-0.037,0.456-0.113l6.297-3.311
						l6.298,3.311c0.144,0.076,0.3,0.113,0.456,0.113c0.203,0,0.405-0.063,0.576-0.188c0.302-0.22,0.453-0.591,0.39-0.959
						l-1.202-7.014l5.095-4.965c0.268-0.261,0.364-0.65,0.248-1.005c-0.115-0.354-0.422-0.613-0.791-0.667l-7.041-1.023
						l-3.149-6.381C75.715,196.896,75.374,196.684,75.001,196.684L75.001,196.684z"/>
				</g>
			</g>
		</g>
	</g>
	<g>
		<g opacity="0.3">
			<path d="M95.104,220.901c-0.102,0-0.202-0.031-0.288-0.094c-0.15-0.109-0.227-0.296-0.195-0.479l1.246-7.268l-5.28-5.146
				c-0.134-0.13-0.182-0.324-0.124-0.502s0.211-0.307,0.396-0.334l7.297-1.061l3.262-6.611c0.082-0.167,0.253-0.273,0.439-0.273
				s0.356,0.106,0.439,0.273l3.263,6.611l7.297,1.061c0.185,0.027,0.338,0.156,0.396,0.334s0.01,0.372-0.124,0.502l-5.279,5.146
				l1.246,7.268c0.031,0.184-0.045,0.37-0.195,0.479c-0.085,0.062-0.187,0.094-0.288,0.094c-0.078,0-0.156-0.019-0.229-0.057
				l-6.525-3.431l-6.523,3.431C95.261,220.883,95.183,220.901,95.104,220.901z"/>
			<path d="M101.856,199.624l3.377,6.843l7.552,1.098l-5.464,5.325l1.289,7.521l-6.754-3.551l-6.752,3.551l1.289-7.521l-5.465-5.325
				l7.552-1.098L101.856,199.624 M101.856,198.644L101.856,198.644c-0.373,0-0.714,0.212-0.879,0.547l-3.148,6.381l-7.041,1.023
				c-0.369,0.054-0.677,0.312-0.792,0.667s-0.019,0.744,0.249,1.005l5.096,4.966l-1.202,7.013c-0.063,0.368,0.088,0.74,0.39,0.959
				c0.171,0.124,0.373,0.188,0.576,0.188c0.156,0,0.312-0.037,0.456-0.113l6.296-3.311l6.298,3.311
				c0.144,0.076,0.3,0.113,0.456,0.113c0.203,0,0.405-0.063,0.576-0.188c0.302-0.22,0.453-0.591,0.39-0.959l-1.202-7.014
				l5.095-4.965c0.268-0.261,0.364-0.65,0.248-1.005c-0.115-0.354-0.422-0.613-0.791-0.667l-7.041-1.023l-3.149-6.381
				C102.57,198.855,102.229,198.644,101.856,198.644L101.856,198.644z"/>
		</g>
		<g>
			<g>
				<g>
					<linearGradient id="SVGID_4_" gradientUnits="userSpaceOnUse" x1="101.8574" y1="218.9414" x2="101.8574" y2="197.1738">
						<stop  offset="0.0083" style="stop-color:#E9A900"/>
						<stop  offset="1" style="stop-color:#FFFA3F"/>
					</linearGradient>
					<path fill="url(#SVGID_4_)" d="M95.104,218.941c-0.102,0-0.202-0.031-0.288-0.094c-0.15-0.109-0.227-0.296-0.195-0.479
						l1.246-7.268l-5.28-5.146c-0.134-0.13-0.182-0.324-0.124-0.502s0.211-0.307,0.396-0.334l7.297-1.061l3.262-6.611
						c0.082-0.167,0.253-0.273,0.439-0.273s0.356,0.106,0.439,0.273l3.263,6.611l7.297,1.061c0.185,0.027,0.338,0.156,0.396,0.334
						s0.01,0.372-0.124,0.502l-5.279,5.146l1.246,7.268c0.031,0.184-0.045,0.37-0.195,0.479c-0.085,0.062-0.187,0.094-0.288,0.094
						c-0.078,0-0.156-0.019-0.229-0.057l-6.525-3.431l-6.523,3.431C95.261,218.923,95.183,218.941,95.104,218.941z"/>
					<path fill="#B78700" d="M101.856,197.664l3.377,6.843l7.552,1.098l-5.464,5.325l1.289,7.521l-6.754-3.551l-6.752,3.551
						l1.289-7.521l-5.465-5.325l7.552-1.098L101.856,197.664 M101.856,196.684L101.856,196.684c-0.373,0-0.714,0.212-0.879,0.547
						l-3.148,6.381l-7.041,1.023c-0.369,0.054-0.677,0.312-0.792,0.667s-0.019,0.744,0.249,1.005l5.096,4.966l-1.202,7.013
						c-0.063,0.368,0.088,0.74,0.39,0.959c0.171,0.124,0.373,0.188,0.576,0.188c0.156,0,0.312-0.037,0.456-0.113l6.296-3.311
						l6.298,3.311c0.144,0.076,0.3,0.113,0.456,0.113c0.203,0,0.405-0.063,0.576-0.188c0.302-0.22,0.453-0.591,0.39-0.959
						l-1.202-7.014l5.095-4.965c0.268-0.261,0.364-0.65,0.248-1.005c-0.115-0.354-0.422-0.613-0.791-0.667l-7.041-1.023
						l-3.149-6.381C102.57,196.896,102.229,196.684,101.856,196.684L101.856,196.684z"/>
				</g>
			</g>
		</g>
	</g>
	<g>
		<g opacity="0.5">
			<g opacity="0.3">
				<path d="M122.318,220.901c-0.102,0-0.203-0.032-0.288-0.094c-0.15-0.109-0.227-0.296-0.195-0.479l1.247-7.268l-5.279-5.146
					c-0.134-0.13-0.182-0.324-0.124-0.502s0.211-0.307,0.396-0.334l7.296-1.061l3.262-6.611c0.083-0.167,0.253-0.273,0.439-0.273
					s0.356,0.106,0.439,0.273l3.262,6.611l7.298,1.061c0.185,0.027,0.338,0.156,0.396,0.334s0.01,0.372-0.124,0.502l-5.28,5.146
					l1.247,7.268c0.031,0.184-0.045,0.37-0.195,0.479c-0.085,0.062-0.187,0.094-0.288,0.094c-0.078,0-0.156-0.019-0.229-0.057
					l-6.525-3.431l-6.524,3.431C122.475,220.883,122.396,220.901,122.318,220.901z"/>
				<path d="M129.071,199.624l3.376,6.843l7.553,1.098l-5.465,5.325l1.29,7.521l-6.754-3.551l-6.753,3.551l1.29-7.521l-5.464-5.325
					l7.551-1.098L129.071,199.624 M129.071,198.644c-0.373,0-0.714,0.212-0.879,0.547l-3.148,6.381l-7.04,1.023
					c-0.369,0.054-0.676,0.312-0.791,0.667c-0.116,0.354-0.02,0.744,0.248,1.005l5.095,4.965l-1.203,7.014
					c-0.063,0.368,0.088,0.739,0.39,0.959c0.171,0.124,0.373,0.188,0.576,0.188c0.156,0,0.312-0.037,0.456-0.113l6.297-3.311
					l6.298,3.311c0.144,0.076,0.3,0.113,0.456,0.113c0.203,0,0.405-0.063,0.576-0.188c0.302-0.22,0.453-0.591,0.39-0.959
					l-1.203-7.014l5.096-4.965c0.268-0.261,0.364-0.65,0.248-1.005c-0.115-0.354-0.422-0.613-0.791-0.667l-7.042-1.023l-3.148-6.381
					C129.785,198.855,129.444,198.644,129.071,198.644L129.071,198.644z"/>
			</g>
			<g>
				<g>
					<g>
						<linearGradient id="SVGID_5_" gradientUnits="userSpaceOnUse" x1="129.0723" y1="218.9414" x2="129.0723" y2="197.1738">
							<stop  offset="0.0083" style="stop-color:#D4D4D4"/>
							<stop  offset="1" style="stop-color:#FFFFFF"/>
						</linearGradient>
						<path fill="url(#SVGID_5_)" d="M122.318,218.941c-0.102,0-0.203-0.032-0.288-0.094c-0.15-0.109-0.227-0.296-0.195-0.479
							l1.247-7.268l-5.279-5.146c-0.134-0.13-0.182-0.324-0.124-0.502s0.211-0.307,0.396-0.334l7.296-1.061l3.262-6.611
							c0.083-0.167,0.253-0.273,0.439-0.273s0.356,0.106,0.439,0.273l3.262,6.611l7.298,1.061c0.185,0.027,0.338,0.156,0.396,0.334
							s0.01,0.372-0.124,0.502l-5.28,5.146l1.247,7.268c0.031,0.184-0.045,0.37-0.195,0.479c-0.085,0.062-0.187,0.094-0.288,0.094
							c-0.078,0-0.156-0.019-0.229-0.057l-6.525-3.431l-6.524,3.431C122.475,218.923,122.396,218.941,122.318,218.941z"/>
						<path fill="#A5A5A5" d="M129.071,197.664l3.376,6.843l7.553,1.098l-5.465,5.325l1.29,7.521l-6.754-3.551l-6.753,3.551
							l1.29-7.521l-5.464-5.325l7.551-1.098L129.071,197.664 M129.071,196.684c-0.373,0-0.714,0.212-0.879,0.547l-3.148,6.381
							l-7.04,1.023c-0.369,0.054-0.676,0.312-0.791,0.667c-0.116,0.354-0.02,0.744,0.248,1.005l5.095,4.965l-1.203,7.014
							c-0.063,0.368,0.088,0.739,0.39,0.959c0.171,0.124,0.373,0.188,0.576,0.188c0.156,0,0.312-0.037,0.456-0.113l6.297-3.311
							l6.298,3.311c0.144,0.076,0.3,0.113,0.456,0.113c0.203,0,0.405-0.063,0.576-0.188c0.302-0.22,0.453-0.591,0.39-0.959
							l-1.203-7.014l5.096-4.965c0.268-0.261,0.364-0.65,0.248-1.005c-0.115-0.354-0.422-0.613-0.791-0.667l-7.042-1.023
							l-3.148-6.381C129.785,196.896,129.444,196.684,129.071,196.684L129.071,196.684z"/>
					</g>
				</g>
			</g>
		</g>
	</g>
</g>
</svg>
