<?xml version="1.0" encoding="utf-8"?>
<!-- Generator: Adobe Illustrator 16.0.0, SVG Export Plug-In . SVG Version: 6.00 Build 0)  -->
<!DOCTYPE svg PUBLIC "-//W3C//DTD SVG 1.1//EN" "http://www.w3.org/Graphics/SVG/1.1/DTD/svg11.dtd">
<svg version="1.1" id="Layer_1" xmlns="http://www.w3.org/2000/svg" xmlns:xlink="http://www.w3.org/1999/xlink" x="0px" y="0px"
	 width="150px" height="234px" viewBox="0 0 150 234" enable-background="new 0 0 150 234" xml:space="preserve">
<g>
	<g>
		<g opacity="0.3">
			<path d="M27.854,220.9c-0.078,0-0.156-0.02-0.229-0.058l-6.525-3.431l-6.525,3.431c-0.072,0.038-0.149,0.058-0.228,0.058
				c-0.103,0-0.203-0.031-0.288-0.094c-0.151-0.108-0.228-0.297-0.195-0.479l1.246-7.269l-5.28-5.146
				c-0.134-0.13-0.182-0.324-0.125-0.502c0.058-0.179,0.211-0.308,0.396-0.334l7.297-1.062l3.263-6.61
				c0.083-0.167,0.253-0.273,0.439-0.273l0,0c0.187,0,0.356,0.106,0.438,0.273l3.263,6.61l7.296,1.062
				c0.185,0.026,0.338,0.155,0.396,0.334c0.059,0.178,0.009,0.372-0.125,0.502l-5.279,5.146l1.247,7.269
				c0.032,0.184-0.044,0.37-0.194,0.479C28.057,220.869,27.955,220.9,27.854,220.9z"/>
			<path d="M21.1,199.624l3.376,6.843l7.552,1.098l-5.464,5.326l1.29,7.521l-6.754-3.553l-6.753,3.553l1.289-7.521l-5.466-5.326
				l7.553-1.098L21.1,199.624 M21.1,198.645c-0.373,0-0.714,0.211-0.879,0.547l-3.149,6.382l-7.042,1.021
				c-0.369,0.054-0.676,0.312-0.791,0.667c-0.115,0.355-0.019,0.744,0.248,1.006l5.096,4.965l-1.202,7.015
				c-0.062,0.368,0.089,0.739,0.391,0.959c0.171,0.124,0.373,0.188,0.576,0.188c0.155,0,0.312-0.037,0.456-0.112l6.297-3.312
				l6.298,3.312c0.144,0.075,0.3,0.112,0.456,0.112c0.203,0,0.405-0.062,0.576-0.188c0.302-0.222,0.453-0.591,0.39-0.959
				l-1.203-7.015l5.095-4.965c0.268-0.262,0.363-0.649,0.248-1.006c-0.114-0.354-0.422-0.613-0.791-0.667l-7.042-1.021l-3.147-6.382
				C21.813,198.855,21.473,198.645,21.1,198.645L21.1,198.645z"/>
		</g>
		<g>
			<g>
				<g>
					
						<linearGradient id="SVGID_1_" gradientUnits="userSpaceOnUse" x1="-626.9014" y1="595.9414" x2="-626.9014" y2="574.1729" gradientTransform="matrix(1 0 0 1 648 -377)">
						<stop  offset="0.0083" style="stop-color:#E9A900"/>
						<stop  offset="1" style="stop-color:#FFFA3F"/>
					</linearGradient>
					<path fill="url(#SVGID_1_)" d="M27.854,218.941c-0.078,0-0.156-0.021-0.229-0.059l-6.525-3.431l-6.525,3.431
						c-0.072,0.038-0.149,0.059-0.228,0.059c-0.103,0-0.203-0.032-0.288-0.094c-0.151-0.109-0.228-0.298-0.195-0.479l1.246-7.269
						l-5.28-5.146c-0.134-0.13-0.182-0.324-0.125-0.502c0.058-0.179,0.211-0.308,0.396-0.334l7.297-1.062l3.263-6.611
						c0.083-0.166,0.253-0.272,0.439-0.272l0,0c0.187,0,0.356,0.106,0.438,0.272l3.263,6.611l7.296,1.062
						c0.185,0.026,0.338,0.155,0.396,0.334c0.059,0.178,0.009,0.372-0.125,0.502l-5.279,5.146l1.247,7.27
						c0.032,0.184-0.044,0.37-0.194,0.479C28.057,218.909,27.955,218.941,27.854,218.941z"/>
					<path fill="#B78700" d="M21.1,197.664l3.376,6.843l7.552,1.099l-5.464,5.324l1.29,7.521L21.1,214.9l-6.753,3.551l1.289-7.521
						l-5.466-5.324l7.553-1.099L21.1,197.664 M21.1,196.684c-0.373,0-0.714,0.213-0.879,0.547l-3.149,6.381l-7.042,1.023
						c-0.369,0.055-0.676,0.312-0.791,0.667c-0.115,0.355-0.019,0.744,0.248,1.005l5.096,4.967l-1.202,7.014
						c-0.062,0.368,0.089,0.738,0.391,0.959c0.171,0.124,0.373,0.188,0.576,0.188c0.155,0,0.312-0.037,0.456-0.113l6.297-3.312
						l6.298,3.312c0.144,0.076,0.3,0.113,0.456,0.113c0.203,0,0.405-0.062,0.576-0.188c0.302-0.221,0.453-0.591,0.39-0.959
						l-1.203-7.016l5.095-4.965c0.268-0.261,0.363-0.648,0.248-1.005c-0.114-0.354-0.422-0.612-0.791-0.667l-7.042-1.023
						l-3.147-6.381C21.813,196.896,21.473,196.684,21.1,196.684L21.1,196.684z"/>
				</g>
			</g>
		</g>
	</g>
	<g>
		<g opacity="0.3">
			<path d="M54.708,220.9c-0.078,0-0.155-0.02-0.228-0.058l-6.526-3.431l-6.524,3.431c-0.072,0.038-0.15,0.058-0.229,0.058
				c-0.102,0-0.203-0.031-0.288-0.094c-0.15-0.108-0.227-0.297-0.194-0.479l1.245-7.269l-5.279-5.146
				c-0.134-0.13-0.183-0.324-0.125-0.502c0.057-0.179,0.211-0.308,0.396-0.334l7.297-1.062l3.264-6.61
				c0.083-0.167,0.253-0.273,0.438-0.273l0,0c0.188,0,0.357,0.106,0.439,0.273l3.262,6.61l7.296,1.062
				c0.186,0.026,0.338,0.155,0.396,0.334c0.058,0.178,0.009,0.372-0.125,0.502l-5.279,5.146l1.247,7.269
				c0.032,0.184-0.044,0.37-0.195,0.479C54.911,220.869,54.811,220.9,54.708,220.9z"/>
			<path d="M47.955,199.624l3.376,6.843l7.553,1.098l-5.465,5.326l1.29,7.521l-6.754-3.553l-6.753,3.553l1.289-7.521l-5.465-5.326
				l7.552-1.098L47.955,199.624 M47.955,198.645c-0.373,0-0.714,0.211-0.879,0.547l-3.148,6.382l-7.042,1.021
				c-0.369,0.054-0.677,0.312-0.791,0.667c-0.115,0.355-0.02,0.744,0.248,1.006l5.096,4.965l-1.202,7.015
				c-0.062,0.368,0.088,0.739,0.39,0.959c0.171,0.124,0.373,0.188,0.576,0.188c0.156,0,0.312-0.037,0.456-0.112l6.297-3.312
				l6.298,3.312c0.145,0.075,0.301,0.112,0.456,0.112c0.203,0,0.405-0.062,0.576-0.188c0.302-0.222,0.453-0.591,0.391-0.959
				l-1.203-7.015l5.095-4.965c0.267-0.262,0.363-0.649,0.248-1.006c-0.115-0.354-0.422-0.613-0.791-0.667l-7.042-1.021l-3.148-6.382
				C48.668,198.855,48.328,198.645,47.955,198.645L47.955,198.645z"/>
		</g>
		<g>
			<g>
				<g>
					
						<linearGradient id="SVGID_2_" gradientUnits="userSpaceOnUse" x1="-600.0464" y1="595.9414" x2="-600.0464" y2="574.1719" gradientTransform="matrix(1 0 0 1 648 -377)">
						<stop  offset="0.0083" style="stop-color:#E9A900"/>
						<stop  offset="1" style="stop-color:#FFFA3F"/>
					</linearGradient>
					<path fill="url(#SVGID_2_)" d="M54.708,218.941c-0.078,0-0.155-0.021-0.228-0.059l-6.526-3.431l-6.524,3.431
						c-0.072,0.038-0.15,0.059-0.229,0.059c-0.102,0-0.203-0.032-0.288-0.094c-0.15-0.109-0.227-0.298-0.194-0.479l1.245-7.269
						l-5.279-5.146c-0.134-0.13-0.183-0.324-0.125-0.502c0.057-0.18,0.211-0.309,0.396-0.334l7.297-1.062l3.264-6.611
						c0.083-0.166,0.253-0.271,0.438-0.271l0,0c0.188,0,0.357,0.105,0.439,0.271l3.262,6.611l7.296,1.062
						c0.186,0.025,0.338,0.154,0.396,0.334c0.058,0.178,0.009,0.372-0.125,0.502l-5.279,5.146l1.247,7.269
						c0.032,0.184-0.044,0.37-0.195,0.479C54.911,218.909,54.811,218.941,54.708,218.941z"/>
					<path fill="#B78700" d="M47.955,197.664l3.376,6.843l7.553,1.099l-5.465,5.324l1.29,7.521l-6.754-3.551l-6.753,3.551
						l1.289-7.521l-5.465-5.324l7.552-1.099L47.955,197.664 M47.955,196.684c-0.373,0-0.714,0.213-0.879,0.547l-3.148,6.381
						l-7.042,1.023c-0.369,0.055-0.677,0.312-0.791,0.667c-0.115,0.355-0.02,0.744,0.248,1.005l5.096,4.967l-1.202,7.014
						c-0.062,0.368,0.088,0.738,0.39,0.959c0.171,0.124,0.373,0.188,0.576,0.188c0.156,0,0.312-0.037,0.456-0.113l6.297-3.312
						l6.298,3.312c0.145,0.076,0.301,0.113,0.456,0.113c0.203,0,0.405-0.062,0.576-0.188c0.302-0.221,0.453-0.591,0.391-0.959
						l-1.203-7.016l5.095-4.965c0.267-0.261,0.363-0.648,0.248-1.005c-0.115-0.354-0.422-0.612-0.791-0.667l-7.042-1.023
						l-3.148-6.381C48.668,196.896,48.328,196.684,47.955,196.684L47.955,196.684z"/>
				</g>
			</g>
		</g>
	</g>
	<g>
		<g opacity="0.3">
			<path d="M68.058,220.9c-0.103,0-0.203-0.031-0.288-0.094c-0.151-0.108-0.228-0.297-0.195-0.479l1.246-7.269l-5.279-5.146
				c-0.134-0.13-0.182-0.324-0.125-0.502c0.059-0.179,0.211-0.308,0.396-0.334l7.296-1.062l3.262-6.61
				c0.083-0.167,0.253-0.273,0.439-0.273c0.186,0,0.356,0.106,0.438,0.273l3.264,6.61l7.298,1.063
				c0.186,0.026,0.338,0.155,0.396,0.334c0.058,0.178,0.01,0.372-0.125,0.502l-5.278,5.146l1.246,7.27
				c0.03,0.186-0.046,0.37-0.195,0.479c-0.085,0.062-0.187,0.094-0.288,0.094c-0.078,0-0.156-0.02-0.229-0.058l-6.525-3.431
				l-6.525,3.431C68.213,220.883,68.136,220.9,68.058,220.9z"/>
			<path d="M74.811,199.624l3.377,6.843l7.552,1.098l-5.464,5.326l1.289,7.521l-6.754-3.553l-6.753,3.553l1.289-7.521l-5.464-5.326
				l7.552-1.098L74.811,199.624 M74.811,198.645L74.811,198.645c-0.373,0-0.714,0.211-0.879,0.547l-3.148,6.382l-7.042,1.021
				c-0.369,0.054-0.676,0.312-0.791,0.667c-0.115,0.355-0.019,0.744,0.248,1.006l5.095,4.965l-1.201,7.015
				c-0.063,0.368,0.088,0.739,0.39,0.959c0.171,0.124,0.373,0.188,0.576,0.188c0.155,0,0.312-0.037,0.456-0.112l6.297-3.312
				l6.298,3.312c0.145,0.075,0.301,0.112,0.456,0.112c0.203,0,0.405-0.062,0.576-0.188c0.302-0.222,0.453-0.591,0.39-0.959
				l-1.201-7.015l5.094-4.965c0.27-0.262,0.365-0.649,0.248-1.006c-0.113-0.354-0.422-0.613-0.791-0.667l-7.041-1.021l-3.147-6.382
				C75.524,198.855,75.184,198.645,74.811,198.645L74.811,198.645z"/>
		</g>
		<g>
			<g>
				<g>
					
						<linearGradient id="SVGID_3_" gradientUnits="userSpaceOnUse" x1="-573.1885" y1="595.9414" x2="-573.1885" y2="574.1719" gradientTransform="matrix(1 0 0 1 648 -377)">
						<stop  offset="0.0083" style="stop-color:#E9A900"/>
						<stop  offset="1" style="stop-color:#FFFA3F"/>
					</linearGradient>
					<path fill="url(#SVGID_3_)" d="M68.058,218.941c-0.103,0-0.203-0.032-0.288-0.094c-0.151-0.109-0.228-0.298-0.195-0.479
						l1.246-7.269l-5.279-5.146c-0.134-0.13-0.182-0.324-0.125-0.502c0.059-0.18,0.211-0.309,0.396-0.334l7.296-1.062l3.262-6.611
						c0.083-0.166,0.253-0.271,0.439-0.271c0.186,0,0.356,0.105,0.438,0.271l3.264,6.611l7.298,1.064
						c0.186,0.027,0.338,0.156,0.396,0.334c0.058,0.178,0.01,0.372-0.125,0.502l-5.278,5.146l1.246,7.268
						c0.03,0.184-0.046,0.37-0.195,0.479c-0.085,0.062-0.187,0.094-0.288,0.094c-0.078,0-0.156-0.019-0.229-0.057l-6.525-3.431
						l-6.525,3.431C68.213,218.923,68.136,218.941,68.058,218.941z"/>
					<path fill="#B78700" d="M74.811,197.664l3.377,6.843l7.552,1.099l-5.464,5.324l1.289,7.521l-6.754-3.551l-6.753,3.551
						l1.289-7.521l-5.464-5.324l7.552-1.099L74.811,197.664 M74.811,196.684L74.811,196.684c-0.373,0-0.714,0.213-0.879,0.547
						l-3.148,6.381l-7.042,1.023c-0.369,0.055-0.676,0.312-0.791,0.667c-0.115,0.355-0.019,0.744,0.248,1.005l5.095,4.965
						l-1.201,7.016c-0.063,0.368,0.088,0.738,0.39,0.959c0.171,0.124,0.373,0.188,0.576,0.188c0.155,0,0.312-0.037,0.456-0.113
						l6.297-3.312l6.298,3.312c0.145,0.076,0.301,0.113,0.456,0.113c0.203,0,0.405-0.062,0.576-0.188
						c0.302-0.221,0.453-0.591,0.39-0.959l-1.201-7.016l5.094-4.965c0.27-0.261,0.365-0.648,0.248-1.005
						c-0.113-0.354-0.422-0.612-0.791-0.667l-7.041-1.023l-3.147-6.381C75.524,196.896,75.184,196.684,74.811,196.684
						L74.811,196.684z"/>
				</g>
			</g>
		</g>
	</g>
	<g>
		<g opacity="0.3">
			<path d="M94.913,220.9c-0.102,0-0.201-0.03-0.287-0.094c-0.149-0.108-0.228-0.297-0.194-0.479l1.246-7.269l-5.28-5.146
				c-0.134-0.13-0.184-0.324-0.124-0.502c0.06-0.179,0.211-0.308,0.396-0.334l7.298-1.062l3.262-6.61
				c0.082-0.167,0.253-0.273,0.438-0.273c0.187,0,0.355,0.106,0.438,0.273l3.263,6.61l7.297,1.062
				c0.187,0.026,0.338,0.155,0.396,0.334c0.059,0.178,0.01,0.372-0.124,0.502l-5.278,5.146l1.246,7.269
				c0.03,0.184-0.046,0.37-0.195,0.479c-0.086,0.062-0.188,0.094-0.289,0.094c-0.076,0-0.154-0.02-0.229-0.058l-6.525-3.431
				l-6.521,3.431C95.07,220.883,94.993,220.9,94.913,220.9z"/>
			<path d="M101.665,199.624l3.377,6.843l7.553,1.098l-5.465,5.326l1.289,7.521l-6.754-3.553l-6.752,3.553l1.289-7.521l-5.466-5.326
				l7.554-1.098L101.665,199.624 M101.665,198.645L101.665,198.645c-0.373,0-0.713,0.211-0.879,0.547l-3.147,6.382l-7.041,1.021
				c-0.369,0.054-0.677,0.312-0.792,0.667c-0.115,0.355-0.02,0.744,0.249,1.006l5.096,4.965l-1.202,7.015
				c-0.062,0.368,0.088,0.739,0.391,0.959c0.172,0.124,0.373,0.188,0.576,0.188c0.155,0,0.312-0.037,0.455-0.112l6.297-3.312
				l6.297,3.312c0.146,0.075,0.302,0.112,0.457,0.112c0.203,0,0.404-0.062,0.576-0.188c0.301-0.222,0.453-0.591,0.391-0.959
				l-1.202-7.015l5.095-4.965c0.27-0.262,0.364-0.649,0.248-1.006c-0.113-0.354-0.422-0.613-0.791-0.667l-7.041-1.021l-3.148-6.382
				C102.38,198.855,102.038,198.645,101.665,198.645L101.665,198.645z"/>
		</g>
		<g>
			<g>
				<g>
					
						<linearGradient id="SVGID_4_" gradientUnits="userSpaceOnUse" x1="-546.3325" y1="595.9414" x2="-546.3325" y2="574.1719" gradientTransform="matrix(1 0 0 1 648 -377)">
						<stop  offset="0.0083" style="stop-color:#E9A900"/>
						<stop  offset="1" style="stop-color:#FFFA3F"/>
					</linearGradient>
					<path fill="url(#SVGID_4_)" d="M94.913,218.941c-0.102,0-0.201-0.031-0.287-0.094c-0.149-0.109-0.228-0.298-0.194-0.479
						l1.246-7.269l-5.28-5.146c-0.134-0.13-0.184-0.324-0.124-0.502c0.06-0.18,0.211-0.309,0.396-0.334l7.298-1.062l3.262-6.611
						c0.082-0.166,0.253-0.271,0.438-0.271c0.187,0,0.355,0.105,0.438,0.271l3.263,6.611l7.297,1.062
						c0.187,0.025,0.338,0.154,0.396,0.334c0.059,0.178,0.01,0.372-0.124,0.502l-5.278,5.146l1.246,7.269
						c0.03,0.184-0.046,0.37-0.195,0.479c-0.086,0.062-0.188,0.094-0.289,0.094c-0.076,0-0.154-0.021-0.229-0.059l-6.525-3.431
						l-6.521,3.431C95.07,218.923,94.993,218.941,94.913,218.941z"/>
					<path fill="#B78700" d="M101.665,197.664l3.377,6.843l7.553,1.099l-5.465,5.324l1.289,7.521l-6.754-3.551l-6.752,3.551
						l1.289-7.521l-5.466-5.324l7.554-1.099L101.665,197.664 M101.665,196.684L101.665,196.684c-0.373,0-0.713,0.213-0.879,0.547
						l-3.147,6.381l-7.041,1.023c-0.369,0.055-0.677,0.312-0.792,0.667c-0.115,0.355-0.02,0.744,0.249,1.005l5.096,4.967
						l-1.202,7.014c-0.062,0.368,0.088,0.738,0.391,0.959c0.172,0.124,0.373,0.188,0.576,0.188c0.155,0,0.312-0.037,0.455-0.113
						l6.297-3.312l6.297,3.312c0.146,0.076,0.302,0.113,0.457,0.113c0.203,0,0.404-0.062,0.576-0.188
						c0.301-0.221,0.453-0.591,0.391-0.959l-1.202-7.016l5.095-4.965c0.27-0.261,0.364-0.648,0.248-1.005
						c-0.113-0.354-0.422-0.612-0.791-0.667l-7.041-1.023l-3.148-6.381C102.38,196.896,102.038,196.684,101.665,196.684
						L101.665,196.684z"/>
				</g>
			</g>
		</g>
	</g>
	<g>
		<g>
			<g>
				<defs>
					<rect id="SVGID_5_" x="116.956" y="196.684" width="11.927" height="24.787"/>
				</defs>
				<clipPath id="SVGID_6_">
					<use xlink:href="#SVGID_5_"  overflow="visible"/>
				</clipPath>
				<g clip-path="url(#SVGID_6_)">
					<g opacity="0.3">
						<path d="M122.13,220.921c-0.102,0-0.202-0.032-0.287-0.094c-0.15-0.109-0.227-0.296-0.195-0.479l1.246-7.268l-5.279-5.146
							c-0.134-0.129-0.182-0.324-0.123-0.502c0.058-0.178,0.211-0.307,0.396-0.334l7.297-1.061l3.262-6.611
							c0.082-0.167,0.253-0.273,0.439-0.273c0.186,0,0.356,0.106,0.438,0.273l3.264,6.611l7.297,1.061
							c0.185,0.027,0.338,0.156,0.396,0.334s0.011,0.372-0.124,0.502l-5.279,5.146l1.246,7.268c0.031,0.185-0.045,0.37-0.194,0.479
							c-0.085,0.062-0.187,0.094-0.288,0.094c-0.078,0-0.156-0.019-0.229-0.057l-6.525-3.431l-6.524,3.431
							C122.288,220.902,122.208,220.921,122.13,220.921z"/>
						<path d="M128.884,199.645l3.377,6.842l7.552,1.099l-5.464,5.325l1.289,7.521l-6.754-3.552l-6.754,3.552l1.289-7.521
							l-5.463-5.325l7.552-1.099L128.884,199.645 M128.884,198.663L128.884,198.663c-0.373,0-0.715,0.212-0.879,0.547l-3.148,6.381
							l-7.041,1.023c-0.369,0.054-0.676,0.312-0.791,0.667c-0.115,0.354-0.02,0.744,0.248,1.005l5.096,4.965l-1.203,7.015
							c-0.062,0.367,0.088,0.739,0.391,0.959c0.171,0.123,0.373,0.188,0.576,0.188c0.156,0,0.312-0.037,0.455-0.113l6.298-3.311
							l6.298,3.311c0.145,0.076,0.3,0.113,0.456,0.113c0.203,0,0.405-0.062,0.575-0.188c0.303-0.221,0.453-0.592,0.391-0.959
							l-1.202-7.015l5.097-4.965c0.267-0.261,0.362-0.65,0.248-1.005c-0.115-0.355-0.424-0.613-0.793-0.668l-7.041-1.022
							l-3.148-6.381C129.598,198.875,129.257,198.663,128.884,198.663L128.884,198.663z"/>
					</g>
					<g>
						<g>
							<g>
								
									<linearGradient id="SVGID_7_" gradientUnits="userSpaceOnUse" x1="-195.1143" y1="160.0391" x2="-195.1143" y2="181.8066" gradientTransform="matrix(1 0 0 -1 324 379)">
									<stop  offset="0.0083" style="stop-color:#E9A900"/>
									<stop  offset="1" style="stop-color:#FFFA3F"/>
								</linearGradient>
								<path fill="url(#SVGID_7_)" d="M122.13,218.961c-0.102,0-0.202-0.031-0.287-0.094c-0.15-0.109-0.227-0.297-0.195-0.479
									l1.246-7.269l-5.279-5.146c-0.134-0.131-0.182-0.324-0.123-0.502c0.058-0.179,0.211-0.308,0.396-0.334l7.297-1.062
									l3.262-6.611c0.082-0.167,0.253-0.272,0.439-0.272c0.186,0,0.356,0.105,0.438,0.272l3.264,6.611l7.297,1.062
									c0.185,0.026,0.338,0.155,0.396,0.334c0.058,0.178,0.011,0.371-0.124,0.502l-5.279,5.146l1.246,7.269
									c0.031,0.184-0.045,0.369-0.194,0.479c-0.085,0.062-0.187,0.094-0.288,0.094c-0.078,0-0.156-0.02-0.229-0.057l-6.525-3.432
									l-6.524,3.432C122.288,218.941,122.208,218.961,122.13,218.961z"/>
								<path fill="#B78700" d="M128.884,197.684l3.377,6.844l7.552,1.098l-5.464,5.325l1.289,7.521l-6.754-3.551l-6.754,3.551
									l1.289-7.521l-5.463-5.325l7.552-1.098L128.884,197.684 M128.884,196.703L128.884,196.703c-0.373,0-0.715,0.212-0.879,0.547
									l-3.148,6.381l-7.041,1.023c-0.369,0.054-0.676,0.312-0.791,0.666s-0.02,0.744,0.248,1.006l5.096,4.965l-1.203,7.014
									c-0.062,0.368,0.088,0.74,0.391,0.959c0.171,0.125,0.373,0.188,0.576,0.188c0.156,0,0.312-0.037,0.455-0.113l6.298-3.312
									l6.298,3.312c0.145,0.076,0.3,0.113,0.456,0.113c0.203,0,0.405-0.063,0.575-0.188c0.303-0.22,0.453-0.591,0.391-0.959
									l-1.202-7.014l5.097-4.965c0.267-0.262,0.362-0.65,0.248-1.006c-0.115-0.354-0.424-0.612-0.793-0.666l-7.041-1.023
									l-3.148-6.381C129.598,196.915,129.257,196.703,128.884,196.703L128.884,196.703z"/>
							</g>
						</g>
					</g>
				</g>
			</g>
		</g>
		<g opacity="0.3" enable-background="new    ">
			<g>
				<defs>
					<rect id="SVGID_8_" x="128.883" y="196.684" width="11.927" height="24.787"/>
				</defs>
				<clipPath id="SVGID_9_">
					<use xlink:href="#SVGID_8_"  overflow="visible"/>
				</clipPath>
				<g clip-path="url(#SVGID_9_)">
					<g opacity="0.3">
						<path d="M135.635,220.921c-0.078,0-0.156-0.019-0.229-0.057l-6.523-3.431l-6.525,3.431c-0.072,0.038-0.15,0.057-0.229,0.057
							c-0.103,0-0.203-0.032-0.289-0.094c-0.149-0.109-0.227-0.296-0.194-0.479l1.246-7.268l-5.279-5.146
							c-0.134-0.129-0.182-0.324-0.124-0.502c0.059-0.178,0.211-0.307,0.396-0.334l7.297-1.061l3.263-6.611
							c0.083-0.167,0.253-0.273,0.439-0.273l0,0c0.187,0,0.356,0.106,0.438,0.273l3.262,6.611l7.297,1.061
							c0.186,0.027,0.339,0.156,0.396,0.334c0.059,0.178,0.01,0.372-0.124,0.502l-5.278,5.146l1.246,7.268
							c0.03,0.185-0.045,0.37-0.195,0.479C135.837,220.889,135.736,220.921,135.635,220.921z"/>
						<path d="M128.882,199.645l3.376,6.842l7.552,1.099l-5.464,5.325l1.289,7.521l-6.753-3.552l-6.754,3.552l1.289-7.521
							l-5.465-5.325l7.553-1.099L128.882,199.645 M128.882,198.663c-0.373,0-0.715,0.212-0.879,0.547l-3.148,6.381l-7.042,1.023
							c-0.369,0.054-0.677,0.312-0.792,0.667c-0.115,0.354-0.02,0.744,0.248,1.005l5.096,4.965l-1.201,7.015
							c-0.063,0.367,0.088,0.738,0.39,0.959c0.171,0.123,0.373,0.188,0.575,0.188c0.156,0,0.312-0.037,0.457-0.113l6.298-3.311
							l6.297,3.311c0.144,0.076,0.3,0.113,0.456,0.113c0.203,0,0.404-0.062,0.576-0.188c0.302-0.22,0.453-0.592,0.39-0.959
							l-1.202-7.015l5.096-4.965c0.268-0.261,0.363-0.65,0.248-1.005s-0.423-0.613-0.791-0.668l-7.041-1.022l-3.148-6.381
							C129.596,198.875,129.255,198.663,128.882,198.663L128.882,198.663z"/>
					</g>
					<g>
						<g>
							<g>
								
									<linearGradient id="SVGID_10_" gradientUnits="userSpaceOnUse" x1="-195.1177" y1="160.0391" x2="-195.1177" y2="181.8066" gradientTransform="matrix(1 0 0 -1 324 379)">
									<stop  offset="0.0083" style="stop-color:#AAAAAA"/>
									<stop  offset="1" style="stop-color:#E7E7E7"/>
								</linearGradient>
								<path fill="url(#SVGID_10_)" d="M135.635,218.961c-0.078,0-0.156-0.02-0.229-0.057l-6.523-3.432l-6.525,3.432
									c-0.072,0.037-0.15,0.057-0.229,0.057c-0.103,0-0.203-0.031-0.289-0.094c-0.149-0.109-0.227-0.297-0.194-0.479l1.246-7.269
									l-5.279-5.146c-0.134-0.131-0.182-0.324-0.124-0.502c0.059-0.179,0.211-0.308,0.396-0.334l7.297-1.062l3.263-6.611
									c0.083-0.167,0.253-0.272,0.439-0.272l0,0c0.187,0,0.356,0.105,0.438,0.272l3.262,6.611l7.297,1.062
									c0.186,0.026,0.339,0.155,0.396,0.334c0.059,0.178,0.01,0.371-0.124,0.502l-5.278,5.146l1.246,7.269
									c0.03,0.184-0.045,0.369-0.195,0.479C135.837,218.93,135.736,218.961,135.635,218.961z"/>
								<path fill="#878787" d="M128.882,197.684l3.376,6.844l7.552,1.098l-5.464,5.325l1.289,7.521l-6.753-3.551l-6.754,3.551
									l1.289-7.521l-5.465-5.325l7.553-1.098L128.882,197.684 M128.882,196.703c-0.373,0-0.715,0.212-0.879,0.547l-3.148,6.381
									l-7.042,1.023c-0.369,0.054-0.677,0.312-0.792,0.666c-0.115,0.355-0.02,0.744,0.248,1.006l5.096,4.965l-1.201,7.014
									c-0.063,0.368,0.088,0.739,0.39,0.959c0.171,0.125,0.373,0.188,0.575,0.188c0.156,0,0.312-0.037,0.457-0.113l6.298-3.312
									l6.297,3.312c0.144,0.076,0.3,0.113,0.456,0.113c0.203,0,0.404-0.063,0.576-0.188c0.302-0.219,0.453-0.591,0.39-0.959
									l-1.202-7.014l5.096-4.965c0.268-0.262,0.363-0.65,0.248-1.006c-0.115-0.354-0.423-0.612-0.791-0.666l-7.041-1.023
									l-3.148-6.381C129.596,196.915,129.255,196.703,128.882,196.703L128.882,196.703z"/>
							</g>
						</g>
					</g>
				</g>
			</g>
		</g>
	</g>
</g>
</svg>
