<?xml version="1.0" encoding="utf-8"?>
<!-- Generator: Adobe Illustrator 16.0.0, SVG Export Plug-In . SVG Version: 6.00 Build 0)  -->
<!DOCTYPE svg PUBLIC "-//W3C//DTD SVG 1.1//EN" "http://www.w3.org/Graphics/SVG/1.1/DTD/svg11.dtd">
<svg version="1.1" id="Layer_1" xmlns="http://www.w3.org/2000/svg" xmlns:xlink="http://www.w3.org/1999/xlink" x="0px" y="0px"
	 width="133.902px" height="25.224px" viewBox="0 0 133.902 25.224" enable-background="new 0 0 133.902 25.224"
	 xml:space="preserve">
<g opacity="0.5">
	<g>
		<g opacity="0.3">
			<polygon points="12.15,3 15.596,9.982 23.3,11.102 17.725,16.535 19.041,24.209 12.15,20.586 5.26,24.209 6.575,16.535 1,11.102 
				8.705,9.982 			"/>
			<path d="M12.15,3l3.445,6.982l7.704,1.119l-5.575,5.434l1.316,7.674l-6.891-3.623L5.26,24.209l1.315-7.674L1,11.102l7.705-1.119
				L12.15,3 M12.15,2c-0.381,0-0.729,0.216-0.897,0.558L8.041,9.068l-7.185,1.043c-0.377,0.055-0.69,0.319-0.808,0.681
				c-0.118,0.362-0.02,0.759,0.253,1.025l5.199,5.067L4.274,24.04c-0.064,0.375,0.09,0.754,0.397,0.978
				c0.174,0.127,0.381,0.191,0.588,0.191c0.159,0,0.319-0.038,0.465-0.115l6.425-3.378l6.425,3.378
				c0.146,0.077,0.306,0.115,0.465,0.115c0.207,0,0.414-0.064,0.588-0.191c0.308-0.224,0.462-0.603,0.397-0.978l-1.227-7.155
				l5.198-5.067c0.273-0.266,0.371-0.663,0.253-1.025c-0.118-0.362-0.431-0.626-0.808-0.681L16.26,9.068l-3.212-6.511
				C12.879,2.216,12.531,2,12.15,2L12.15,2z"/>
			<polygon points="39.551,3 42.996,9.982 50.701,11.102 45.125,16.535 46.441,24.209 39.551,20.586 32.66,24.209 33.977,16.535 
				28.4,11.102 36.105,9.982 			"/>
			<path d="M39.551,3l3.445,6.982l7.705,1.119l-5.576,5.434l1.316,7.674l-6.891-3.623l-6.891,3.623l1.316-7.674L28.4,11.102
				l7.705-1.119L39.551,3 M39.551,2c-0.381,0-0.729,0.216-0.897,0.558l-3.212,6.511l-7.185,1.043
				c-0.377,0.055-0.69,0.319-0.808,0.681c-0.118,0.362-0.02,0.76,0.253,1.025l5.199,5.067l-1.227,7.155
				c-0.064,0.375,0.09,0.754,0.397,0.978c0.174,0.127,0.381,0.191,0.588,0.191c0.159,0,0.319-0.038,0.465-0.115l6.425-3.378
				l6.425,3.378c0.146,0.077,0.306,0.115,0.465,0.115c0.207,0,0.414-0.064,0.588-0.191c0.308-0.224,0.462-0.603,0.397-0.978
				L46.2,16.885l5.199-5.067c0.273-0.266,0.371-0.663,0.253-1.025c-0.118-0.362-0.431-0.626-0.808-0.681L43.66,9.068l-3.212-6.511
				C40.279,2.216,39.932,2,39.551,2L39.551,2z"/>
			<polygon points="66.951,3 70.396,9.982 78.102,11.102 72.525,16.535 73.842,24.209 66.951,20.586 60.061,24.209 61.377,16.535 
				55.802,11.102 63.506,9.982 			"/>
			<path d="M66.951,3l3.445,6.982l7.705,1.119l-5.576,5.434l1.316,7.674l-6.891-3.623l-6.891,3.623l1.316-7.674l-5.575-5.434
				l7.704-1.119L66.951,3 M66.951,2c-0.381,0-0.729,0.216-0.897,0.558l-3.212,6.511l-7.184,1.043
				c-0.377,0.055-0.69,0.319-0.808,0.681c-0.118,0.362-0.02,0.76,0.253,1.025l5.198,5.067l-1.227,7.155
				c-0.064,0.375,0.09,0.754,0.397,0.978c0.174,0.127,0.381,0.191,0.588,0.191c0.159,0,0.319-0.038,0.465-0.115l6.425-3.378
				l6.425,3.378c0.146,0.077,0.307,0.115,0.466,0.115c0.207,0,0.414-0.064,0.588-0.191c0.308-0.224,0.462-0.603,0.397-0.978
				L73.6,16.885l5.2-5.067c0.272-0.266,0.37-0.663,0.253-1.025c-0.118-0.362-0.431-0.626-0.808-0.681l-7.185-1.043l-3.212-6.511
				C67.68,2.216,67.332,2,66.951,2L66.951,2z"/>
		</g>
		<g>
			<g>
				<g>
					<linearGradient id="SVGID_1_" gradientUnits="userSpaceOnUse" x1="12.1499" y1="22.209" x2="12.1499" y2="1.0005">
						<stop  offset="0.0083" style="stop-color:#AAAAAA"/>
						<stop  offset="1" style="stop-color:#E7E7E7"/>
					</linearGradient>
					<polygon fill="url(#SVGID_1_)" points="12.15,1 15.596,7.982 23.3,9.102 17.725,14.535 19.041,22.209 12.15,18.586 
						5.26,22.209 6.575,14.535 1,9.102 8.705,7.982 					"/>
					<path fill="#878787" d="M12.15,1l3.445,6.982L23.3,9.102l-5.575,5.434l1.316,7.674l-6.891-3.623L5.26,22.209l1.315-7.674
						L1,9.102l7.705-1.119L12.15,1 M12.15,0c-0.381,0-0.729,0.216-0.897,0.558L8.041,7.068L0.856,8.112
						c-0.377,0.055-0.69,0.319-0.808,0.681c-0.118,0.362-0.02,0.759,0.253,1.025l5.199,5.067L4.274,22.04
						c-0.064,0.375,0.09,0.754,0.397,0.978c0.174,0.127,0.381,0.191,0.588,0.191c0.159,0,0.319-0.038,0.465-0.115l6.425-3.378
						l6.425,3.378c0.146,0.077,0.306,0.115,0.465,0.115c0.207,0,0.414-0.064,0.588-0.191c0.308-0.224,0.462-0.603,0.397-0.978
						l-1.227-7.155l5.198-5.067c0.273-0.266,0.371-0.663,0.253-1.025c-0.118-0.362-0.431-0.626-0.808-0.681L16.26,7.068
						l-3.212-6.511C12.879,0.216,12.531,0,12.15,0L12.15,0z"/>
				</g>
				<g>
					<linearGradient id="SVGID_2_" gradientUnits="userSpaceOnUse" x1="39.5508" y1="22.209" x2="39.5508" y2="1.0005">
						<stop  offset="0.0083" style="stop-color:#AAAAAA"/>
						<stop  offset="1" style="stop-color:#E7E7E7"/>
					</linearGradient>
					<polygon fill="url(#SVGID_2_)" points="39.551,1 42.996,7.982 50.701,9.102 45.125,14.535 46.441,22.209 39.551,18.586 
						32.66,22.209 33.977,14.535 28.4,9.102 36.105,7.982 					"/>
					<path fill="#878787" d="M39.551,1l3.445,6.982l7.705,1.119l-5.576,5.434l1.316,7.674l-6.891-3.623l-6.891,3.623l1.316-7.674
						L28.4,9.102l7.705-1.119L39.551,1 M39.551,0c-0.381,0-0.729,0.216-0.897,0.558l-3.212,6.511l-7.185,1.043
						c-0.377,0.055-0.69,0.319-0.808,0.681c-0.118,0.362-0.02,0.76,0.253,1.025l5.199,5.067l-1.227,7.155
						c-0.064,0.375,0.09,0.754,0.397,0.978c0.174,0.127,0.381,0.191,0.588,0.191c0.159,0,0.319-0.038,0.465-0.115l6.425-3.378
						l6.425,3.378c0.146,0.077,0.306,0.115,0.465,0.115c0.207,0,0.414-0.064,0.588-0.191c0.308-0.224,0.462-0.603,0.397-0.978
						L46.2,14.885l5.199-5.067c0.273-0.266,0.371-0.663,0.253-1.025c-0.118-0.362-0.431-0.626-0.808-0.681L43.66,7.068l-3.212-6.511
						C40.279,0.216,39.932,0,39.551,0L39.551,0z"/>
				</g>
				<g>
					<linearGradient id="SVGID_3_" gradientUnits="userSpaceOnUse" x1="66.9517" y1="22.209" x2="66.9517" y2="1.0005">
						<stop  offset="0.0083" style="stop-color:#AAAAAA"/>
						<stop  offset="1" style="stop-color:#E7E7E7"/>
					</linearGradient>
					<polygon fill="url(#SVGID_3_)" points="66.951,1 70.396,7.982 78.102,9.102 72.525,14.535 73.842,22.209 66.951,18.586 
						60.061,22.209 61.377,14.535 55.802,9.102 63.506,7.982 					"/>
					<path fill="#878787" d="M66.951,1l3.445,6.982l7.705,1.119l-5.576,5.434l1.316,7.674l-6.891-3.623l-6.891,3.623l1.316-7.674
						l-5.575-5.434l7.704-1.119L66.951,1 M66.951,0c-0.381,0-0.729,0.216-0.897,0.558l-3.212,6.511l-7.184,1.043
						c-0.377,0.055-0.69,0.319-0.808,0.681c-0.118,0.362-0.02,0.76,0.253,1.025l5.198,5.067l-1.227,7.155
						c-0.064,0.375,0.09,0.754,0.397,0.978c0.174,0.127,0.381,0.191,0.588,0.191c0.159,0,0.319-0.038,0.465-0.115l6.425-3.378
						l6.425,3.378c0.146,0.077,0.307,0.115,0.466,0.115c0.207,0,0.414-0.064,0.588-0.191c0.308-0.224,0.462-0.603,0.397-0.978
						L73.6,14.885l5.2-5.067c0.272-0.266,0.37-0.663,0.253-1.025c-0.118-0.362-0.431-0.626-0.808-0.681l-7.185-1.043l-3.212-6.511
						C67.68,0.216,67.332,0,66.951,0L66.951,0z"/>
				</g>
			</g>
		</g>
	</g>
	<g>
		<g opacity="0.3">
			<polygon points="94.352,3 97.797,9.982 105.502,11.102 99.926,16.535 101.242,24.209 94.352,20.586 87.461,24.209 88.777,16.535 
				83.202,11.102 90.906,9.982 			"/>
			<path d="M94.352,3l3.445,6.982l7.705,1.119l-5.576,5.434l1.316,7.674l-6.891-3.623l-6.891,3.623l1.316-7.674l-5.575-5.434
				l7.704-1.119L94.352,3 M94.352,2c-0.381,0-0.729,0.216-0.896,0.558l-3.213,6.511l-7.184,1.043
				c-0.377,0.055-0.689,0.319-0.808,0.681c-0.118,0.362-0.02,0.76,0.253,1.025l5.199,5.067l-1.228,7.155
				c-0.064,0.375,0.09,0.754,0.397,0.978c0.174,0.127,0.381,0.191,0.588,0.191c0.159,0,0.318-0.038,0.465-0.115l6.426-3.378
				l6.425,3.378c0.146,0.077,0.307,0.115,0.466,0.115c0.207,0,0.414-0.064,0.588-0.191c0.308-0.224,0.462-0.603,0.397-0.978
				L101,16.885l5.2-5.067c0.272-0.266,0.37-0.663,0.253-1.025c-0.118-0.362-0.431-0.626-0.808-0.681l-7.185-1.043l-3.213-6.511
				C95.08,2.216,94.732,2,94.352,2L94.352,2z"/>
			<polygon points="121.752,3 125.197,9.982 132.902,11.102 127.326,16.535 128.643,24.209 121.752,20.586 114.861,24.209 
				116.178,16.535 110.603,11.102 118.307,9.982 			"/>
			<path d="M121.752,3l3.445,6.982l7.705,1.119l-5.576,5.434l1.316,7.674l-6.891-3.623l-6.891,3.623l1.316-7.674l-5.575-5.434
				l7.704-1.119L121.752,3 M121.752,2c-0.381,0-0.729,0.216-0.896,0.558l-3.213,6.511l-7.184,1.044
				c-0.377,0.055-0.689,0.318-0.808,0.68c-0.118,0.363-0.02,0.76,0.253,1.025l5.199,5.067l-1.228,7.155
				c-0.064,0.375,0.09,0.754,0.397,0.978c0.174,0.127,0.381,0.191,0.588,0.191c0.159,0,0.318-0.038,0.465-0.115l6.426-3.378
				l6.425,3.378c0.146,0.077,0.307,0.115,0.466,0.115c0.207,0,0.414-0.064,0.588-0.191c0.308-0.224,0.462-0.603,0.397-0.978
				l-1.228-7.155l5.2-5.067c0.272-0.266,0.37-0.662,0.253-1.025c-0.118-0.361-0.431-0.625-0.808-0.68l-7.185-1.044l-3.213-6.511
				C122.48,2.216,122.133,2,121.752,2L121.752,2z"/>
		</g>
		<g>
			<g>
				<g>
					<linearGradient id="SVGID_4_" gradientUnits="userSpaceOnUse" x1="94.3516" y1="22.209" x2="94.3516" y2="1.0005">
						<stop  offset="0.0083" style="stop-color:#AAAAAA"/>
						<stop  offset="1" style="stop-color:#E7E7E7"/>
					</linearGradient>
					<polygon fill="url(#SVGID_4_)" points="94.352,1 97.797,7.982 105.502,9.102 99.926,14.535 101.242,22.209 94.352,18.586 
						87.461,22.209 88.777,14.535 83.202,9.102 90.906,7.982 					"/>
					<path fill="#878787" d="M94.352,1l3.445,6.982l7.705,1.119l-5.576,5.434l1.316,7.674l-6.891-3.623l-6.891,3.623l1.316-7.674
						l-5.575-5.434l7.704-1.119L94.352,1 M94.352,0c-0.381,0-0.729,0.216-0.896,0.558l-3.213,6.511l-7.184,1.043
						c-0.377,0.055-0.689,0.319-0.808,0.681c-0.118,0.362-0.02,0.76,0.253,1.025l5.199,5.067l-1.228,7.155
						c-0.064,0.375,0.09,0.754,0.397,0.978c0.174,0.127,0.381,0.191,0.588,0.191c0.159,0,0.318-0.038,0.465-0.115l6.426-3.378
						l6.425,3.378c0.146,0.077,0.307,0.115,0.466,0.115c0.207,0,0.414-0.064,0.588-0.191c0.308-0.224,0.462-0.603,0.397-0.978
						L101,14.885l5.2-5.067c0.272-0.266,0.37-0.663,0.253-1.025c-0.118-0.362-0.431-0.626-0.808-0.681l-7.185-1.043l-3.213-6.511
						C95.08,0.216,94.732,0,94.352,0L94.352,0z"/>
				</g>
				<g>
					<linearGradient id="SVGID_5_" gradientUnits="userSpaceOnUse" x1="121.752" y1="22.209" x2="121.752" y2="1.0005">
						<stop  offset="0.0083" style="stop-color:#AAAAAA"/>
						<stop  offset="1" style="stop-color:#E7E7E7"/>
					</linearGradient>
					<polygon fill="url(#SVGID_5_)" points="121.752,1 125.197,7.982 132.902,9.102 127.326,14.535 128.643,22.209 121.752,18.586 
						114.861,22.209 116.178,14.535 110.603,9.102 118.307,7.982 					"/>
					<path fill="#878787" d="M121.752,1l3.445,6.982l7.705,1.119l-5.576,5.434l1.316,7.674l-6.891-3.623l-6.891,3.623l1.316-7.674
						l-5.575-5.434l7.704-1.119L121.752,1 M121.752,0c-0.381,0-0.729,0.216-0.896,0.558l-3.213,6.511l-7.184,1.044
						c-0.377,0.055-0.689,0.318-0.808,0.68c-0.118,0.363-0.02,0.76,0.253,1.025l5.199,5.067l-1.228,7.155
						c-0.064,0.375,0.09,0.754,0.397,0.978c0.174,0.127,0.381,0.191,0.588,0.191c0.159,0,0.318-0.038,0.465-0.115l6.426-3.378
						l6.425,3.378c0.146,0.077,0.307,0.115,0.466,0.115c0.207,0,0.414-0.064,0.588-0.191c0.308-0.224,0.462-0.603,0.397-0.978
						l-1.228-7.155l5.2-5.067c0.272-0.266,0.37-0.662,0.253-1.025c-0.118-0.361-0.431-0.625-0.808-0.68l-7.185-1.044l-3.213-6.511
						C122.48,0.216,122.133,0,121.752,0L121.752,0z"/>
				</g>
			</g>
		</g>
	</g>
</g>
</svg>
